<svg height="512" viewBox="0 0 56 56" width="512" xmlns="http://www.w3.org/2000/svg"><g id="Page-1" fill="none" fill-rule="evenodd"><g id="144---Paste-Folder" fill="rgb(0,0,0)" fill-rule="nonzero"><path id="Shape" d="m49.7 44h-3.4c-.2506356-.0025381-.4644208.1808896-.5.429l-1.1 7.762c-.1860273 1.2931884.3997335 2.5759883 1.4988143 3.2823619 1.0990809.7063736 2.5092905.7063736 3.6083714 0 1.0990808-.7063736 1.6848416-1.9891735 1.4988143-3.2823619l-1.109-7.762c-.035427-.2469727-.2475014-.430031-.497-.429z"/><path id="Shape" d="m38 41v-6.959c0-.014-.008-.026-.008-.041s.007-.027.008-.041v-11.959c0-1.1045695.8954305-2 2-2h8c0-1.6568542-1.3431458-3-3-3h-20c-2.7614237 0-5-2.2385763-5-5v-2c0-1.65685425-1.3431458-3-3-3h-14c-1.65685425 0-3 1.34314575-3 3v36c0 1.6568542 1.34314575 3 3 3h39.7c.2506356.0025381.4644208-.1808896.5-.429l.572-4c.0207518-.1445818-.0227555-.2910086-.1190886-.4008015-.0963331-.1097928-.2358587-.1719723-.3819114-.1701985h-2.271c-1.6568542 0-3-1.3431458-3-3zm-34-10c0 .5522847-.44771525 1-1 1s-1-.4477153-1-1v-14c0-.5522847.44771525-1 1-1s1 .4477153 1 1zm0-19c0 .5522847-.44771525 1-1 1s-1-.4477153-1-1v-2c0-.55228475.44771525-1 1-1s1 .44771525 1 1zm16 26h-1c-.5522847 0-1-.4477153-1-1s.4477153-1 1-1h1c.5522847 0 1 .4477153 1 1s-.4477153 1-1 1zm2-5c0-.5522847.4477153-1 1-1h1c.5522847 0 1 .4477153 1 1s-.4477153 1-1 1h-1c-.5522847 0-1-.4477153-1-1zm13 5h-11c-.5522847 0-1-.4477153-1-1s.4477153-1 1-1h11c.5522847 0 1 .4477153 1 1s-.4477153 1-1 1zm0-4h-7c-.5522847 0-1-.4477153-1-1s.4477153-1 1-1h7c.5522847 0 1 .4477153 1 1s-.4477153 1-1 1zm0-4h-3c-.5522847 0-1-.4477153-1-1s.4477153-1 1-1h3c.5522847 0 1 .4477153 1 1s-.4477153 1-1 1z"/><path id="Shape" d="m40 41c0 .5522847.4477153 1 1 1h14c.5522847 0 1-.4477153 1-1v-1.5c0-.2761424-.2238576-.5-.5-.5h-15c-.2761424 0-.5.2238576-.5.5z"/><path id="Shape" d="m53 25c0 .5522847-.4477153 1-1 1s-1-.4477153-1-1v-2.5c0-.2761424-.2238576-.5-.5-.5h-1c-.2761424 0-.5.2238576-.5.5v2.5c0 .5522847-.4477153 1-1 1s-1-.4477153-1-1v-2.5c0-.2761424-.2238576-.5-.5-.5h-1.008c-.2761424 0-.5.2238576-.5.5v2.5c0 .5522847-.4477153 1-1 1s-1-.4477153-1-1v-2.5c0-.2761424-.2238576-.5-.5-.5h-1.992c-.2761424 0-.5.2238576-.5.5v10c0 .2761424.2238576.5.5.5h2.492c.5522847 0 1 .4477153 1 1s-.4477153 1-1 1h-2.492c-.2761424 0-.5.2238576-.5.5v1c0 .2761424.2238576.5.5.5h15c.2761424 0 .5-.2238576.5-.5v-1c0-.2761424-.2238576-.5-.5-.5h-8.508c-.5522847 0-1-.4477153-1-1s.4477153-1 1-1h8.508c.2761424 0 .5-.2238576.5-.5v-10c0-.2761424-.2238576-.5-.5-.5h-2c-.2761424 0-.5.2238576-.5.5z"/><path id="Shape" d="m53 10h-20c-2.7614237 0-5-2.23857625-5-5v-2c0-1.65685425-1.3431458-3-3-3h-14c-1.65685425 0-3 1.34314575-3 3v2h9c1.3260824 0 2.597852.5267842 3.5355339 1.46446609.9376819.9376819 1.4644661 2.20945146 1.4644661 3.53553391v2c0 1.6568542 1.3431458 3 3 3h20c2.7600532.0033061 4.9966939 2.2399468 5 5h5.5c.2761424 0 .5-.2238576.5-.5v-6.5c0-1.6568542-1.3431458-3-3-3z"/></g></g></svg>