<svg height="512pt" viewBox="0 0 512 512" width="512pt" xmlns="http://www.w3.org/2000/svg"><path d="m324.921875 118.160156-33.921875 9-35-9-9-29.960937 9-29.253907c0-5.359374 4.347656-9.707031 9.707031-9.707031h49.507813c5.359375 0 9.707031 4.347657 9.707031 9.707031l9 29.253907zm0 0" fill="#00b7a0"/><path d="m453.054688 118.160156-29.253907 9-29.960937-9-9-34.460937 9-24.753907c0-5.359374 4.347656-9.707031 9.707031-9.707031h49.507813c5.359374 0 9.707031 4.347657 9.707031 9.707031v49.507813c0 5.359375-4.347657 9.707031-9.707031 9.707031zm0 0" fill="#00b7a0"/><g fill="#00d2b4"><path d="m187.078125 118.160156-32.957031 9-35.960938-9-9-34.460937 9-24.753907c0-5.359374 4.347656-9.707031 9.707032-9.707031h49.503906c5.363281 0 9.707031 4.347657 9.707031 9.707031l12 27.386719zm0 0"/><path d="m118.160156 187.078125-29.960937 9-29.253907-9c-5.359374 0-9.707031-4.34375-9.707031-9.707031v-49.503906c0-5.359376 4.347657-9.707032 9.707031-9.707032l27.71875-9 31.496094 9 9 32.78125zm0 0"/><path d="m256 187.078125-34.460938 9-34.460937-9-9-34.457031 9-34.460938 34.460937-9 34.460938 9 9 34.460938zm0 0"/></g><path d="m393.839844 187.078125-34.460938 9-34.457031-9-9-34.457031 9-34.460938 34.457031-9 34.460938 9 9 38.960938zm0 0" fill="#00b7a0"/><path d="m187.078125 256-34.503906 9-34.414063-9-9-34.460938 9-34.460937 38.960938-9 29.957031 9 9 38.960937zm0 0" fill="#00d2b4"/><path d="m324.921875 256-34.460937 9-34.460938-9-9-29.960938 9-38.960937 34.460938-9 34.460937 9 9 38.960937zm0 0" fill="#00b7a0"/><path d="m453.054688 256-29.253907 9-29.960937-9-9-34.460938 9-34.460937 29.960937-9 29.253907 9c5.359374 0 9.707031 4.347656 9.707031 9.707031v49.507813c0 5.359375-4.347657 9.707031-9.707031 9.707031zm0 0" fill="#00b7a0"/><path d="m118.160156 324.921875-29.960937 9-29.253907-9c-5.359374 0-9.707031-4.347656-9.707031-9.707031v-49.507813c0-5.359375 4.347657-9.707031 9.707031-9.707031l29.253907-9 29.960937 9 9 34.777344zm0 0" fill="#00d2b4"/><path d="m256 324.921875-34.460938 9-34.460937-9-9-34.460937 9-34.460938 34.460937-9 34.460938 9 9 34.460938zm0 0" fill="#00d2b4"/><path d="m393.839844 324.921875-32.339844 9-36.578125-9-9-34.460937 9-34.460938 31.808594-9 37.109375 9 9 32zm0 0" fill="#00b7a0"/><path d="m187.078125 393.839844-34.457031 9-34.460938-9-9-34.460938 9-34.457031 29.960938-9 38.957031 9 9 36.136719zm0 0" fill="#00d2b4"/><path d="m324.921875 393.839844-29.960937 6-38.960938-6-9-31.460938 9-37.457031 38-9 30.921875 9 9 34.457031zm0 0" fill="#00b7a0"/><path d="m453.054688 393.839844-27.054688 9-32.160156-9-9-29.960938 9-38.957031 29.960937-9 29.253907 9c5.359374 0 9.707031 4.34375 9.707031 9.707031v49.503906c0 5.359376-4.347657 9.707032-9.707031 9.707032zm0 0" fill="#00b7a0"/><path d="m108.453125 462.761719h-49.507813c-5.359374 0-9.707031-4.347657-9.707031-9.707031v-49.507813c0-5.359375 4.347657-9.707031 9.707031-9.707031l24.753907-9 34.460937 9 9 29.960937-9 29.253907c0 5.359374-4.347656 9.707031-9.707031 9.707031zm0 0" fill="#00d2b4"/><path d="m246.292969 462.761719h-49.507813c-5.359375 0-9.707031-4.347657-9.707031-9.707031l-9-36.054688 9-23.160156 34.460937-9 34.460938 9 9 29.960937-9 29.253907c0 5.359374-4.347656 9.707031-9.707031 9.707031zm0 0" fill="#00d2b4"/><path d="m384.132812 462.761719h-49.503906c-5.363281 0-9.707031-4.347657-9.707031-9.707031l-9-29.253907 9-29.960937 29.957031-9 38.960938 9 9 29.960937-9 29.253907c0 5.359374-4.347656 9.707031-9.707032 9.707031zm0 0" fill="#00b7a0"/><path d="m504.5 512h-235.421875c-4.140625 0-7.5-3.359375-7.5-7.5s3.359375-7.5 7.5-7.5h227.921875v-224.808594c0-4.140625 3.355469-7.5 7.5-7.5s7.5 3.359375 7.5 7.5v232.308594c0 4.140625-3.355469 7.5-7.5 7.5zm0 0" fill="#838383"/><path d="m7.5 247.308594c-4.144531 0-7.5-3.359375-7.5-7.5v-232.308594c0-4.140625 3.355469-7.5 7.5-7.5h235.421875c4.140625 0 7.5 3.359375 7.5 7.5s-3.359375 7.5-7.5 7.5h-227.921875v224.808594c0 4.140625-3.355469 7.5-7.5 7.5zm0 0" fill="#838383"/><path d="m117.828125 118.492188h68.917969v68.921874h-68.917969zm0 0" fill="#8feadb"/><path d="m117.828125 118.492188h-59.214844c-5.359375 0-9.707031-4.34375-9.707031-9.707032v-49.503906c0-5.363281 4.347656-9.707031 9.707031-9.707031h49.507813c5.359375 0 9.707031 4.34375 9.707031 9.707031zm0 0" fill="#8feadb"/><path d="m255.667969 118.492188h-68.921875v-59.210938c0-5.363281 4.347656-9.707031 9.707031-9.707031h49.507813c5.359374 0 9.707031 4.34375 9.707031 9.707031zm0 0" fill="#64e1c5"/><path d="m393.839844 118.160156h-68.917969v-59.214844c0-5.359374 4.34375-9.707031 9.707031-9.707031h49.503906c5.359376 0 9.707032 4.347657 9.707032 9.707031zm0 0" fill="#00d2b4"/><path d="m256 118.160156h68.921875v68.917969h-68.921875zm0 0" fill="#64e1c5"/><path d="m453.054688 187.078125h-59.214844v-68.917969h59.214844c5.359374 0 9.707031 4.347656 9.707031 9.707032v49.503906c0 5.363281-4.347657 9.707031-9.707031 9.707031zm0 0" fill="#00d2b4"/><path d="m117.828125 256.332031h-59.214844c-5.359375 0-9.707031-4.34375-9.707031-9.707031v-49.503906c0-5.363282 4.347656-9.707032 9.707031-9.707032h59.214844zm0 0" fill="#8feadb"/><path d="m186.746094 187.414062h68.921875v68.917969h-68.921875zm0 0" fill="#64e1c5"/><path d="m324.921875 187.078125h68.917969v68.921875h-68.917969zm0 0" fill="#00d2b4"/><path d="m117.828125 256.332031h68.917969v68.921875h-68.917969zm0 0" fill="#8feadb"/><path d="m255.667969 256.332031h68.917969v68.921875h-68.917969zm0 0" fill="#64e1c5"/><path d="m452.71875 325.253906h-59.210938v-68.921875h59.210938c5.363281 0 9.707031 4.347657 9.707031 9.707031v49.507813c0 5.359375-4.34375 9.707031-9.707031 9.707031zm0 0" fill="#00d2b4"/><path d="m117.828125 394.171875h-59.214844c-5.359375 0-9.707031-4.34375-9.707031-9.707031v-49.503906c0-5.363282 4.347656-9.707032 9.707031-9.707032h59.214844zm0 0" fill="#8feadb"/><path d="m186.746094 325.253906h68.921875v68.917969h-68.921875zm0 0" fill="#64e1c5"/><path d="m324.585938 325.253906h68.921874v68.917969h-68.921874zm0 0" fill="#00d2b4"/><path d="m177.039062 463.09375h-49.503906c-5.363281 0-9.707031-4.347656-9.707031-9.707031v-59.214844h68.917969v59.214844c0 5.359375-4.34375 9.707031-9.707032 9.707031zm0 0" fill="#8feadb"/><path d="m314.878906 463.09375h-49.503906c-5.363281 0-9.707031-4.347656-9.707031-9.707031v-59.214844h68.917969v59.214844c0 5.359375-4.34375 9.707031-9.707032 9.707031zm0 0" fill="#64e1c5"/><path d="m452.71875 463.09375h-49.503906c-5.363282 0-9.707032-4.347656-9.707032-9.707031v-59.214844h59.210938c5.363281 0 9.707031 4.347656 9.707031 9.707031v49.507813c0 5.359375-4.34375 9.707031-9.707031 9.707031zm0 0" fill="#00d2b4"/></svg>