<svg id="Layer_5" enable-background="new 0 0 64 64" height="512" viewBox="0 0 64 64" width="512" xmlns="http://www.w3.org/2000/svg"><g><path d="m43 26c0 1.416 2.993 3 7 3s7-1.584 7-3c0-.568-.504-1.174-1.37-1.693-1.234 1.632-3.185 2.693-5.384 2.693h-.492c-2.199 0-4.15-1.061-5.384-2.693-.866.519-1.37 1.125-1.37 1.693z"/><path d="m29 41c4.963 0 9-4.037 9-9v-.517c0-1.462-.361-2.918-1.046-4.211l-7.37-13.921c-.23-.434-.938-.434-1.168 0l-7.37 13.921c-.685 1.293-1.046 2.749-1.046 4.211v.517c0 4.963 4.037 9 9 9z"/><path d="m49.754 25h.492c2.621 0 4.754-2.133 4.754-4.754 0-.683-.144-1.345-.426-1.967l-4.07-8.955c-.09-.197-.287-.324-.504-.324s-.414.127-.504.323v.001l-4.07 8.955c-.282.622-.426 1.284-.426 1.967 0 2.621 2.133 4.754 4.754 4.754z"/><path d="m56.981 20.63c-.038.672-.174 1.317-.395 1.923 1.541.908 2.414 2.129 2.414 3.447 0 2.851-3.869 5-9 5s-9-2.149-9-5c0-1.318.873-2.539 2.414-3.447-.221-.606-.357-1.251-.395-1.923-2.506 1.326-4.019 3.293-4.019 5.37 0 3.859 4.935 7 11 7s11-3.141 11-7c0-2.077-1.513-4.044-4.019-5.37z"/><path d="m50.778 34.973c-.259.01-.515.027-.778.027-4.017 0-7.613-1.269-10-3.257v.257c0 .815-.096 1.607-.264 2.371 5.82 1.621 9.264 4.434 9.264 7.629 0 5.047-8.785 9-20 9s-20-3.953-20-9c0-3.195 3.444-6.008 9.264-7.629-.168-.764-.264-1.556-.264-2.371v-.517c0-.42.029-.84.077-1.257-9.076 2.137-15.077 6.769-15.077 11.774 0 7.168 11.663 13 26 13s26-5.832 26-13c0-3.097-2.235-5.5-4.222-7.027z"/><path d="m21.595 40.11c-1.771.642-2.595 1.409-2.595 1.89 0 1.194 3.988 3 10 3s10-1.806 10-3c0-.481-.824-1.248-2.595-1.89-1.957 1.788-4.551 2.89-7.405 2.89s-5.448-1.102-7.405-2.89z"/><path d="m11 42c0 3.311 7.393 7 18 7s18-3.689 18-7c0-2.189-3.06-4.392-7.867-5.721-.342.807-.787 1.557-1.302 2.252 2.046.893 3.169 2.097 3.169 3.469 0 3.282-6.037 5-12 5s-12-1.718-12-5c0-1.372 1.123-2.576 3.169-3.469-.515-.695-.961-1.445-1.302-2.252-4.807 1.329-7.867 3.532-7.867 5.721z"/></g></svg>