<?xml version="1.0" standalone="no"?>
<!DOCTYPE svg PUBLIC "-//W3C//DTD SVG 20010904//EN"
 "http://www.w3.org/TR/2001/REC-SVG-20010904/DTD/svg10.dtd">
<svg version="1.0" xmlns="http://www.w3.org/2000/svg"
 width="498.000000pt" height="498.000000pt" viewBox="0 0 498.000000 498.000000"
 preserveAspectRatio="xMidYMid meet">

<g transform="translate(0.000000,498.000000) scale(0.100000,-0.100000)"
fill="#000000" stroke="none">
<path d="M287 4969 c-103 -24 -197 -103 -244 -204 l-28 -60 0 -2210 0 -2210
27 -57 c37 -80 105 -149 181 -184 l62 -29 2210 0 2210 0 66 32 c79 39 140 102
177 181 l27 57 0 2210 0 2210 -32 66 c-39 79 -102 140 -181 177 l-57 27 -2190
2 c-1252 0 -2206 -3 -2228 -8z m751 -1573 c207 -79 621 -236 918 -350 541
-206 541 -206 577 -191 19 8 368 141 774 296 406 154 794 302 863 329 69 26
135 51 148 55 l22 6 -2 -742 -3 -742 -100 -38 c-55 -21 -317 -121 -583 -222
-313 -119 -485 -181 -488 -173 -2 6 -3 119 -2 251 l3 239 353 135 352 134 0
240 c0 218 -1 239 -16 233 -9 -4 -258 -98 -553 -211 -295 -112 -544 -207 -553
-210 -17 -7 -18 -40 -18 -496 l0 -489 -235 0 -235 0 0 490 c0 270 -1 490 -3
490 -2 0 -257 97 -567 215 -310 118 -565 213 -567 212 -1 -2 -3 -109 -4 -237
l-1 -235 159 -62 c87 -34 245 -94 351 -134 l192 -73 0 -254 c0 -139 -3 -251
-7 -249 -5 3 -258 100 -563 217 -305 116 -565 216 -577 221 l-23 9 0 740 c0
407 2 740 5 740 3 0 175 -65 383 -144z"/>
</g>
</svg>
