<svg width="456" height="287" xmlns="http://www.w3.org/2000/svg" xmlns:xlink="http://www.w3.org/1999/xlink" overflow="hidden"><defs><clipPath id="clip0"><rect x="438" y="143" width="456" height="287"/></clipPath></defs><g clip-path="url(#clip0)" transform="translate(-438 -143)"><path d="M709.493 420.239 448 172" stroke="#000000" stroke-width="17.6667" stroke-miterlimit="8" fill="none" fill-rule="evenodd"/><path d="M885.015 224.657 448 172" stroke="#000000" stroke-width="17.6667" stroke-miterlimit="8" fill="none" fill-rule="evenodd"/><path d="M0 0 175.522 195.582" stroke="#000000" stroke-width="17.6667" stroke-miterlimit="8" fill="none" fill-rule="evenodd" transform="matrix(-1 0 0 1 884.522 225)"/><path d="M0 0 321.672 18.9851" stroke="#000000" stroke-width="17.6667" stroke-miterlimit="8" fill="none" fill-rule="evenodd" transform="matrix(1 0 0 -1 448 171.985)"/><path d="M0 0 60.1791 267.224" stroke="#000000" stroke-width="17.6667" stroke-miterlimit="8" fill="none" fill-rule="evenodd" transform="matrix(-1 0 0 1 769.179 153)"/><path d="M871.881 410.194 768 153" stroke="#000000" stroke-width="17.6667" stroke-miterlimit="8" fill="none" fill-rule="evenodd"/><path d="M0 0 162.627 8" stroke="#000000" stroke-width="17.6667" stroke-miterlimit="8" fill="none" fill-rule="evenodd" transform="matrix(-1 0 0 1 871.627 411)"/><path d="M0 0 12.8954 184.537" stroke="#000000" stroke-width="17.6667" stroke-miterlimit="8" fill="none" fill-rule="evenodd" transform="matrix(1 0 0 -1 872 409.537)"/><path d="M872.12 409.194 448 172" stroke="#000000" stroke-width="17.6667" stroke-miterlimit="8" fill="none" fill-rule="evenodd"/><path d="M884.776 224.657 768 152" stroke="#000000" stroke-width="17.6667" stroke-miterlimit="8" fill="none" fill-rule="evenodd"/></g></svg>