<?xml version="1.0" standalone="no"?>
<!DOCTYPE svg PUBLIC "-//W3C//DTD SVG 20010904//EN"
 "http://www.w3.org/TR/2001/REC-SVG-20010904/DTD/svg10.dtd">
<svg version="1.0" xmlns="http://www.w3.org/2000/svg"
 width="255.000000pt" height="173.000000pt" viewBox="0 0 255.000000 173.000000"
 preserveAspectRatio="xMidYMid meet">

<g transform="translate(0.000000,173.000000) scale(0.100000,-0.100000)"
fill="#000000" stroke="none">
<path d="M1473 1708 c-31 -36 -139 -190 -157 -226 -19 -37 -26 -114 -13 -149
6 -16 -2 -12 -30 17 -22 21 -56 43 -78 49 -44 12 -314 15 -331 3 -17 -11 -22
-35 -11 -56 21 -41 147 -204 181 -234 33 -28 89 -52 126 -52 8 0 -4 -9 -27
-21 -58 -29 -88 -78 -138 -230 -63 -191 -55 -197 151 -129 131 44 193 84 219
144 13 30 13 30 14 6 2 -39 35 -102 72 -136 63 -58 214 -164 235 -164 39 0 44
18 44 158 0 163 -11 212 -59 261 l-36 38 56 -5 c42 -3 68 1 101 16 49 21 238
156 251 178 18 32 -12 52 -140 95 -150 50 -219 55 -277 21 l-36 -21 20 39 c31
60 26 126 -20 268 -21 68 -44 130 -51 138 -17 20 -43 17 -66 -8z m-3 -373 c19
-23 8 -129 -17 -163 -25 -34 -34 -34 -51 1 -16 34 -8 103 19 146 21 35 31 38
49 16z m-177 -131 c92 -47 106 -120 19 -95 -65 19 -122 62 -122 93 0 24 58 25
103 2z m367 -59 c16 -19 5 -34 -37 -52 -36 -15 -124 -20 -142 -8 -22 13 -11
43 22 59 41 20 140 21 157 1z m-281 -89 c17 -20 -6 -62 -59 -110 -46 -42 -83
-46 -88 -9 -4 24 47 86 93 115 36 22 39 22 54 4z m108 -28 c51 -56 74 -158 35
-158 -38 0 -92 85 -92 145 0 42 25 48 57 13z"/>
<path d="M680 470 c0 -49 -2 -90 -4 -90 -3 0 -21 10 -41 21 -52 31 -145 24
-183 -14 -27 -27 -27 -28 -27 -178 l0 -151 28 -24 c41 -35 139 -35 191 1 l36
24 0 -24 c0 -24 3 -25 55 -25 l55 0 0 275 0 275 -55 0 -55 0 0 -90z m-26 -150
c25 -9 26 -12 26 -104 0 -84 -2 -97 -19 -106 -27 -14 -104 -13 -119 2 -8 8
-12 46 -12 105 0 77 3 94 18 102 22 13 73 14 106 1z"/>
<path d="M1294 546 c-17 -8 -34 -21 -38 -31 -3 -9 -6 -127 -6 -261 l0 -244 55
0 55 0 0 160 0 160 40 0 40 0 0 45 0 45 -41 0 c-36 0 -40 2 -37 23 2 18 10 23
41 25 37 3 37 4 37 48 l0 44 -57 0 c-32 -1 -72 -7 -89 -14z"/>
<path d="M2190 515 l0 -45 55 0 55 0 0 45 0 45 -55 0 -55 0 0 -45z"/>
<path d="M2342 261 c4 -251 4 -251 104 -251 86 0 94 5 94 51 0 39 0 39 -40 39
l-40 0 0 115 0 115 40 0 40 0 0 45 0 45 -40 0 c-36 0 -40 3 -40 25 0 24 -3 25
-61 25 l-61 0 4 -209z"/>
<path d="M75 410 c-31 -12 -43 -31 -51 -78 l-7 -42 56 0 c47 0 55 3 60 21 5
18 12 20 64 17 l58 -3 3 -41 3 -41 -101 1 c-100 1 -102 0 -126 -27 -20 -24
-24 -39 -24 -96 0 -95 16 -111 112 -111 54 0 78 5 104 21 l34 21 0 -21 c0 -19
6 -21 55 -21 l55 0 0 176 c0 96 -4 184 -10 194 -5 10 -24 23 -41 29 -37 13
-214 14 -244 1z m185 -265 c0 -29 -5 -37 -27 -46 -15 -5 -45 -9 -67 -7 -39 3
-41 5 -44 37 -4 43 8 51 81 51 l57 0 0 -35z"/>
<path d="M900 407 c-29 -15 -50 -51 -50 -89 0 -27 2 -28 54 -28 46 0 54 3 59
21 5 18 12 20 64 17 l58 -3 3 -41 3 -42 -101 2 c-100 1 -102 0 -126 -27 -20
-24 -24 -39 -24 -98 0 -95 14 -109 111 -109 55 0 79 5 105 21 l34 21 0 -21 c0
-19 6 -21 55 -21 l55 0 0 169 c0 93 -4 181 -9 194 -6 14 -23 29 -42 36 -44 15
-218 14 -249 -2z m190 -262 c0 -42 -23 -55 -96 -55 -39 0 -44 3 -45 23 -3 59
6 67 84 67 l57 0 0 -35z"/>
<path d="M1490 215 l0 -205 55 0 54 0 3 143 3 142 68 9 67 9 0 55 0 55 -41 -6
c-26 -3 -52 -16 -70 -33 l-29 -28 0 32 0 32 -55 0 -55 0 0 -205z"/>
<path d="M1780 250 c0 -230 5 -240 125 -240 54 0 68 4 94 26 l31 26 0 -26 c0
-25 2 -26 60 -26 l60 0 0 205 0 206 -57 -3 -58 -3 -3 -152 -3 -152 -33 -6
c-18 -4 -46 -5 -62 -3 l-29 3 -5 155 -5 155 -57 3 -58 3 0 -171z"/>
<path d="M2190 215 l0 -205 55 0 55 0 0 205 0 205 -55 0 -55 0 0 -205z"/>
</g>
</svg>
