<?xml version="1.0" encoding="UTF-8"?>
<svg height="58.25mm" viewBox="0,0,626.578,206.388" width="176.83mm" xmlns="http://www.w3.org/2000/svg">
 <metadata/>
 <g transform="translate(-60.14 -451.09)">
  <path d="m565.097 585.081c-.28448-1.85337-1.0309-5.9831-1.6587-9.17726-.62782-3.19416-1.1415-8.17968-1.1415-11.0794 0-2.89921-.32015-5.2713-.71143-5.2713-.39129 0-.85831-1.269-1.0378-2.82003-.22511-1.94486-.004-2.82014.71142-2.82014.57081 0 1.0378.36258 1.0378.80574s.53921.80574 1.1982.80574c.65904 0 1.1982-.56528 1.1982-1.25618 0-.69088-.35948-1.0321-.79883-.75818-.43936.27389-.79883-.11169-.79883-.85684 0-1.12248-.20881-1.18004-1.2176-.3356-.66965.56057-1.4681.76654-1.7742.45771-.30617-.30882-.1814-.81371.27728-1.12197 1.0875-.73092 2.1695-3.63393 1.1077-2.97201-.43433.27074-.78969.0868-.78969-.40857 0-.49546-.39534-.65439-.87852-.35318-.63146.39363-.64215.10215-.038-1.03645.61549-1.16005.56052-1.99504-.20533-3.11873-.92351-1.35504-1.872-5.58554-3.3094-14.7611-.23714-1.51378-.61648-3.05471-.84299-3.4244-.2265-.36966.23847-.68364 1.0333-.69773 1.2601-.0223 1.2917-.15167.24685-1.01009-1.5615-1.28294-1.8306-2.38361-2.0616-8.43173-.19772-5.17608.52495-6.32057 2.1076-3.33786.59465 1.12077 1.1698 1.42673 1.6919.90018.71774-.72395 10.488 2.34998 11.952 3.76025.47271.45546 3.0495 18.6952 3.541 25.065.11968 1.55103.55403 4.08913.96524 5.64017.74744 2.81933.74785 2.81953 1.561.80574.44736-1.10794 1.4489-6.72792 2.2256-12.4891 1.9904-14.7631 3.0704-15.7668 12.434-11.553 3.8802 1.74603 4.1005 2.24042 3.4419 7.7261-.2545 2.12005-.8191 3.42439-1.4822 3.42439-1.1646 0-2.8405 4.05086-2.7997 6.7676.0249 1.6616.047 1.66393 1.1982.12864.64506-.86023 1.1728-2.46167 1.1728-3.5587s.22349-1.76915.49664-1.49368c.86312.87059-1.4207 11.4066-2.6936 12.4264-.87751.70298-1.0844 1.80318-.74077 3.93919.47078 2.92616-.98832 12.1013-1.6281 10.2382-.18166-.52906-.93615-.76679-1.6766-.5283-.9979.32139-1.0765.23812-.30369-.32175 1.9545-1.41603.26732-6.95017-1.8671-6.12406-2.1176.81961-.95873 7.18666 2.1207 11.6519 1.0826 1.56982 1.2858 2.69573.7996 4.43156-.35845 1.2798-.47037 2.87093-.24871 3.53567.46074 1.38169-3.1285-2.80398-4.491-5.23727-1.3381-2.38976-1.143.10829.21547 2.75794.64151 1.25123.91111 2.59293.59912 2.9815-.312.38855-.24086.43766.15806.10915.39894-.32853 1.2147-.18766 1.8128.31302 1.0443.87415.87859 4.80498-.33461 7.93875-.25733.66474-.49893 1.57123-.53687 2.01433-.038.44315-2.4598.91213-5.382 1.0422-5.119.2278-5.376.1471-7.0402-2.21022-.97223-1.37715-1.4706-2.88941-1.14-3.45934.32299-.55697-.18768-.32726-1.1348.51046-1.145 1.01272-1.5781 2.10177-1.2924 3.2497.32528 1.30727.046 1.75562-1.1501 1.8465-1.2682.0963-1.6817-.54445-2.097-3.2497zm10.883-12.0478c-1.2994-1.31061-2.0412-.0841-.78289 1.29445.59471.65153 1.2091.82453 1.3687.38537.15926-.43827-.10434-1.19417-.58581-1.67978zm-7.6592-2.25264c.93673-1.52882-.42947-1.90597-1.8207-.50273-1.2453 1.25607-1.2475 1.3621-.0281 1.3621.72725 0 1.5592-.38671 1.8488-.85935zm2.846-.99079c-1.0253-1.03413-2.065-.23487-1.306 1.00394.29404.47986.90056.64436 1.3478.36552.5456-.34011.53182-.79079-.0419-1.36947zm3.0758.16965c-.4904-.92426-1.0867-1.48378-1.325-1.24335-.65844.66414.39626 2.92384 1.3647 2.92384.59078 0 .57862-.51524-.0396-1.68049zm5.6908-3.06561c-.86034-1.21872-1.6757-2.73421-1.8118-3.36785-.29697-1.38189-2.9619-3.51719-3.594-2.87971-.24594.24806.53162 1.62424 1.7279 3.05824s2.4985 3.46529 2.8938 4.51406c.39531 1.04876 1.0854 1.67827 1.5335 1.39886.50564-.31521.22128-1.34868-.74945-2.7237zm6.8624-12.5981c1.3819-1.39391.88477-3.60514-.8106-3.60514-.61902 0-1.573.54387-2.12 1.20861-.68707.83504-.71731 1.20862-.0978 1.20862.49315 0 .89664.54387.89664 1.20861 0 1.53518.59487 1.52943 2.1317-.0207zm-7.7235-1.94606c0-1.0936-1.4096-1.81217-1.9202-.97882-.47742.77916.21434 1.73704 1.2545 1.73704.36613 0 .66569-.34118.66569-.75818zm3.1953-.0951c0-.46931-.35947-.6292-.79882-.35532-.43936.27389-.79883.65787-.79883.85329 0 .19543.35947.35532.79883.35532.43935 0 .79882-.38399.79882-.85329zm-8.3877-1.56396c-1.3181-.33829-3.6546-.6325-5.1924-.65378-2.2484-.0311-2.483.0969-1.1982.65378.87871.38086 3.2153.67506 5.1924.65377 3.2454-.0349 3.3618-.0984 1.1982-.65377zm13.181-3.27051c0-.86015-.35947-1.56396-.79883-1.56396-.43935 0-.79882.92786-.79882 2.06189 0 1.16944.34576 1.8463.79882 1.56396.43936-.27388.79883-1.20175.79883-2.06189zm3.9941.0476c0-.88631-.35947-1.61152-.79882-1.61152-.43936 0-.79883.72517-.79883 1.61152 0 .88632.35947 1.61142.79883 1.61142.43935 0 .79882-.72515.79882-1.61142zm-27.959-1.25617c0-.69089-.35947-1.03211-.79883-.75818-.43935.27388-.79883.83915-.79883 1.25618 0 .417.35948.75818.79883.75818.43936 0 .79883-.56527.79883-1.25617zm24.322-4.03835c.29434-1.58254.73228-3.39541.9732-4.02865.24092-.63326.097-1.15136-.31981-1.15136-.71694 0-2.6084 5.18022-2.6084 7.14365 0 2.14297 1.4649.67165 1.955-1.96364zm-26.225-2.49023c-1.4237-2.64969-1.6586-2.15388-.47156.99522.45165 1.19822 1.019 1.97899 1.2608 1.73522.24177-.24386-.11337-1.47257-.78919-2.73036zm-2.5427-13.2484c-.69707-1.13763-1.9453-.84117-1.9453.46202 0 .71879.4686 1.00195 1.1937.72132.65651-.25412.99477-.78661.75168-1.18327zm55.576 60.5267c-1.1699-2.20477-.98628-4.60352.39321-5.13749.85818-.33216 1.1948-1.67151 1.186-4.71915-.009-3.04471-.23256-3.91151-.7866-3.04683-.67216 1.04907-.77598 1.03392-.7866-.11523-.0236-2.55305 2.0487-2.24557 2.2435.33286.10212 1.3519.80465 2.92212 1.5612 3.48942 1.1615.87101 1.4846.79517 2.077-.48754.38582-.83547.43711-2.17357.11396-2.97353-.55112-1.36432-.62828-1.35463-1.2445.15695-.63158 1.54932-.6591 1.54336-.71308-.15388-.0309-.97095.30332-1.98948.74268-2.26334.43935-.27388.76299-1.29242.7192-2.26334-.0733-1.62525-.1249-1.60556-.65018.24899-.50568 1.7853-.63548 1.61536-1.1415-1.49459-.31401-1.92991-1.111-4.56242-1.7711-5.8499-.79369-1.54811-.88741-2.26991-.27672-2.13116.50791.11537 1.092-.25479 1.2979-.8226.20595-.56779.0712-.97808-.29956-.91174-1.4853.26576-2.6711-.11189-2.6711-.85068 0-.42924.51298-.5819 1.14-.33923.85384.3305 1.0261-.0297.68617-1.43531-.24959-1.0321-.89782-2.42046-1.4405-3.08521-1.0353-1.26809-1.4558-17.6228-.49186-19.1294.30351-.47435 3.6265.39262 8.3119 2.16862 4.2934 1.62737 7.5586 3.2087 7.256 3.51386-.30262.30525-.20157.55499.22456.55499.48643 0 .71572 8.77082.61609 23.5674-.0873 12.9626-.19645 23.7492-.24264 23.9704-.0462.22158-3.496.47495-7.6662.56302-6.7021.14155-7.6757-.0159-8.3873-1.35705zm13.973-4.84607c-.27154-.44316-.65223-.80573-.84597-.80573-.19375 0-.35227.36257-.35227.80573s.38069.80574.84597.80574c.46529 0 .62381-.36258.35227-.80574zm-7.3044-20.6956c-.50255-.18216-.74084-.99805-.52952-1.81307.2113-.81505-.0451-1.74956-.56981-2.07663-.68547-.42731-.79339-.0843-.38342 1.21861.43988 1.39795.32224 1.66615-.51354 1.17105-.59626-.35325-.39733.14743.44208 1.11259.8394.9652 1.7381 1.52175 1.9971 1.23679.25898-.28497.0597-.66716-.44286-.84931zm-2.3375-4.99703c.24078-.39295-.0692-1.13884-.68884-1.65757-.92052-.77058-1.048-.63989-.69685.71443.47449 1.83014.73394 2.00676 1.3857.9431zm9.2406-4.32139c-.0008-.9971-1.119-3.08198-2.4844-4.63301-2.2529-2.55921-2.4314-2.63373-1.9298-.80574.30401 1.10794.63645 2.65049.73877 3.42783.14725 1.11884 2.4837 3.67057 3.4776 3.79811.10984.0141.19886-.79019.19783-1.78732zm12.783 32.5111c0-2.08289.34146-4.13155.75882-4.55253.47921-.4834.46548-2.08229-.0372-4.33906-.75785-3.40198-.52675-9.13101.56302-13.9573.27595-1.22215.0424-3.34048-.5189-4.70743-.59376-1.44582-.71673-2.70694-.29404-3.01523 1.4434-1.05271 2.7048-4.07238 1.9085-4.56879-.43036-.26827-1.0657-.31122-1.4118-.0954-.34615.21579-.70323-.50789-.79351-1.60819-.0903-1.10027.16395-1.79601.56497-1.54599.40101.24998 1.2308-.0516 1.844-.67002.95397-.96222 2.0298-.80633 7.4536 1.08007l6.3387 2.20457.0983 7.86705.0983 7.86706-1.6542-2.63514c-.90978-1.44935-1.7968-2.20346-1.9712-1.67574-.17437.52766.10736 1.47519.62608 2.10561.51872.63041.70571 1.53366.41556 2.00725-.29016.47355-.095.76137.4337.63961 1.2134-.27947 1.4814 1.56931 1.913 13.1939l.34844 9.38639-2.8669.54248c-2.9256.55358-4.4682-.43137-3.727-2.37967.19601-.5152-.5562-1.35615-1.6716-1.86871-1.792-.82356-2.0396-.74651-2.1278.66221-.055.87682-.14479 2.04745-.19971 2.60142-.0579.58424-1.3578 1.05796-3.0955 1.12814l-2.9956.12093v-3.78701zm13.472-12.1205c-.59461-1.35493-1.3528-2.46348-1.6849-2.46348-.82665 0-.78566.19053.67776 3.14933 1.6055 3.24616 2.4734 2.65513 1.0072-.68589zm-9.4782-3.31675c0-.46931-.35947-.6292-.79883-.35532-.43936.27389-.79883.65787-.79883.8533 0 .19542.35947.35531.79883.35531s.79883-.38398.79883-.85329zm8.25777-23.7925c-1.4091-1.42127-2.5996-1.9398-3.7543-1.63525-1.7975.47411-8.4886-2.36916-8.4886-3.60706 0-1.05069 2.994-.90845 3.6571.17375.78857 1.28698 2.7099-3.64473 2.1945-5.6327-.22948-.88513-.94381-1.81317-1.5874-2.06219-.6436-.2491-.97195-.77641-.72969-1.17175.24227-.39538.0462-1.85983-.43584-3.25445-.70134-2.02927-1.0965-2.35119-1.9792-1.61223-.93549.7831-1.0739-4.07227-.91148-31.981l.19146-32.9039 4.1052-.20795c4.8694-.24666 7.0634 1.15782 10.175 6.51394l2.0543 3.53567.0248 37.963c.0221 33.7714-.11191 37.963-1.214 37.963-.68136 0-2.1674-.93656-3.3022-2.08127zm2.136-5.97613c0-.44315-.35947-.80574-.79882-.80574-.43936 0-.79883.36259-.79883.80574 0 .44316.35947.80573.79883.80573.43935 0 .79882-.36257.79882-.80573zm-3.1953-53.9843c0-.44315-.53921-.80574-1.1982-.80574-.65903 0-1.1982.36259-1.1982.80574 0 .44316.53921.80573 1.1982.80573.65903 0 1.1982-.36257 1.1982-.80573zm-5.648-3.02149c-.0498-1.96343-.13432-2.03229-.74267-.6043-.9376 2.20073-.9376 2.82013 0 2.82013.43935 0 .77356-.9971.74267-2.21577zm9.3259-4.01188c-.26544-.26774-.45424.20815-.41956 1.05755.0383.93865.22762 1.12955.48262.48681.23076-.58165.20238-1.27658-.063-1.54437zm-11.572-.82253c.0521-.77551.028-1.89961-.0534-2.49801-.0814-.59842.23544-.84896.70419-.55676.92067.57394 1.1861-.56998.33212-1.43137-.78865-.79547-2.621 2.02816-2.6498 4.08328-.0296 2.11571 1.5267 2.49185 1.6669.40286zm2.6549-.12579c.24605-.40155 1.1416-.54697 1.9901-.32317 1.2502.32978 1.4588.0831 1.0999-1.30121-.32014-1.23487-.71287-1.48217-1.4173-.89243-.53596.44865-1.2305.55743-1.5435.24174-.55118-.55594-2.0428 1.1761-2.0676 2.40087-.0172.8472 1.3986.75533 1.9385-.12579zm10.032-.88137c0-.44316-.35947-.80574-.79883-.80574-.43935 0-.79883.36258-.79883.80574s.35948.80573.79883.80573c.43936 0 .79883-.36257.79883-.80573zm-8.846-3.90566c-.5098-.17683-.52985-.62153-.0545-1.20861.48843-.60323.36011-1.29304-.36608-1.96778-1.2849-1.19387-1.2543-1.22255-1.5318 1.44178-.26569 2.55173 1.1584 4.6121 2.1149 3.05966.35964-.58371.28786-1.16883-.16253-1.32515zm-3.1364-2.07148c0-.18533-.21819-.91049-.48488-1.61142-.68493-1.80035-1.9116-1.58415-1.9116.33697 0 .89526.53256 1.61142 1.1982 1.61142.65903 0 1.1982-.15164 1.1982-.33697zm-23.72 63.444-7.3443-2.85487-.0437-25.2912c-.0254-14.7227.26067-25.2912.68463-25.2912.40562 0 .34252-1.03089-.14243-2.32675-.62364-1.66656-.62709-3.09551-.0121-5.03582.67028-2.115.87644-2.3115.94011-.89619.0952 2.11581 1.6733 2.49165 1.6914.40286.0105-1.218.12881-1.24547.86812-.20143.66432.93808.73803.75773.32932-.80574-.28961-1.10794-.56044-2.46752-.60184-3.02149-.0414-.55394-.34319-1.00717-.67063-1.00717s-.49669-.90646-.37613-2.01433c.12058-1.10794-.0796-2.01432-.44468-2.01432-.36514 0-.47175-.50509-.23689-1.12238.64344-1.6913 11.854-1.50216 13.713.23139 1.4566 1.35847 2.2481 9.75415.91957 9.75415-.37414 0-.4873.5072-.25146 1.12713.23584.61991.0439 1.36705-.42664 1.66039-.59954.37374-.57029 1.06099.0978 2.29727 1.3915 2.57516 1.9135 13.8331.60346 13.0162-.69634-.4341-.79982-.2963-.34047.45338.96912 1.58163 1.0732 5.64351.12952 5.0553-.50753-.31638-.55852.20482-.14125 1.4438.82395 2.44651 1.0074 27.2966.19779 26.7917-.83751-.52192-.74625.35613.22781 2.19194 1.0313 1.94375.1164 2.04725-1.3126.14847-1.5709-2.08723-1.3872.16919.26559 3.26293 1.5612 2.92243 1.9569 5.39873.86267 5.39873-.4053 0-.51474.36259-.2432.80574.81734 1.33393-1.2301.83981-8.942-2.15791zm3.9811-14.7621c-.2298-.88631-.748-1.61142-1.1516-1.61142-.40537 0-.3511.72119.12128 1.61142.47027.88631.98847 1.61152 1.1516 1.61152.16308 0 .10852-.72517-.12127-1.61152zm-2.6409-5.66451c-1.3023-2.45439-1.8441-1.43137-.64631 1.22023.54903 1.21538 1.125 1.8263 1.28 1.35736.15494-.46886-.1302-1.62879-.63365-2.57759zm7.4341-19.3142c.22994-.88692.15759-1.45015-.1608-1.25173-.31838.19847-1.5936-1.70462-2.8338-4.22899-1.2402-2.52447-2.4148-4.13438-2.6102-3.57768-.19538.5567-.684.80724-1.0858.55674-.40183-.25048-.7306-.0326-.7306.48406 0 .51672.49615.74745 1.1026.51275.75804-.29342 1.6898 1.06441 2.9818 4.34532 2.0063 5.09468 2.6718 5.72489 3.3369 3.15952zm-10.225-4.84647c-.27596-.45039-.83639-.61029-1.2454-.35532-1.108.69071-.90141 1.17418.50176 1.17418.68496 0 1.0196-.36849.74363-.81887zm3.2007-7.48314c1.1625-1.57689 4.6463-2.38078 4.1006-.9462-.27451.72153-.0176.9523.73573.66073 1.5043-.58225 1.4778-2.48499-.0563-4.03228-1.5481-1.56154-5.0604-.46258-8.0009 2.50336-1.1228 1.13248-2.3846 2.05906-2.8039 2.05906-.41939 0-.76252.41003-.76252.91116 0 1.24578 5.7372.26881 6.7874-1.1558zm-31.95 40.5359c-9.9923-3.51982-9.315-2.96786-8.7691-7.14536.26851-2.05482.86221-5.70318 1.3193-8.10738 1.0124-5.32492 1.2462-7.04974 1.8646-13.7574.26555-2.88052.82002-6.50637 1.2322-8.0574.41214-1.55103.75135-3.99846.7538-5.43872.003-1.78854.3843-2.61868 1.2027-2.61868.65904 0 1.1982-.38398 1.1982-.85329s-.35948-.6292-.79883-.35532c-.99254.61874-.95025-.81347.24984-8.4602l.9484-6.04298 16.5786-.4615-.44361 4.25948c-.24399 2.34271-1.5656 10.423-2.937 17.9571-1.3714 7.53362-3.1955 17.6864-4.0536 22.5607-2.3231 13.1969-3.2012 17.2603-3.8061 17.6117-.29996.17413-2.3427-.31651-4.5395-1.09037zm-5.2803-9.37679c-1.2722-1.54619-1.5152-1.38745-1.3302.86849.12446 1.5168.40042 1.77036 1.1992 1.10168.78156-.65424.81387-1.14025.131-1.9702zm-4.705 8.61471c0-.46931.35947-.85329.79883-.85329.43935 0 .79882.15989.79882.35531 0 .19541-.35947.57941-.79882.85329-.43936.27389-.79883.114-.79883-.35531zm-19.489-10.1342c-3.9091-1.4962-7.4697-3.08581-7.9125-3.53244s-.87059-3.09449-.95064-5.88413c-.0801-2.78964-.54291-6.03803-1.0286-7.21878-.48564-1.18064-1.04-3.9-1.2319-6.04307-.19191-2.14298-.62438-4.56748-.96104-5.38773-.33667-.82024-.29014-1.72674.1034-2.01432 1.1416-.83438 1.2839-2.73976.25273-3.38259-.63289-.39454-.38217-.77073.75666-1.13531.93676-.29988 1.6918-1.1553 1.6778-1.90102-.0233-1.24447-.11254-1.23992-1.0866.0543-.58366.77553-1.4709 1.41007-1.9717 1.41007-.84086 0-1.0218-.88532-1.3171-6.44588-.0589-1.10794-.39648-3.03795-.75031-4.28908-.78035-2.75934-.13903-3.4767 3.7531-4.19809 2.8799-.5338 2.9956-.46805 2.9956 1.70281 0 2.14156.0582 2.17781 1.1274.70285.62008-.85533.95834-1.83105.75169-2.16832-.48166-.78608 6.2463-.78291 7.3074.003.43936.32559.8735 1.13581.96477 1.80055 1.2818 9.33651 5.8469 43.3522 6.2447 46.531.63733 5.09307.84784 5.05934-8.725 1.39533zm-6.8721-18.9204c0-.44315-.35947-.80573-.79883-.80573-.43935 0-.79883.36258-.79883.80573.52312 1.22015 1.13347.69079 1.59766 0zm0-11.2803c0-1.32949-.35947-2.41723-.79883-2.41723-.43935 0-.79883 1.08774-.79883 2.41723s.35948 2.41723.79883 2.41723c.43936 0 .79883-1.08774.79883-2.41723zm-3.1953-8.50777c0-.19542-.56043-.35531-1.2454-.35531s-1.0196.36849-.74363.81888c.45598.74416 1.989.38687 1.989-.46357zm4.3936.45043c.27154-.44316-.0667-.80574-.75168-.80574-.68496 0-1.2454.36258-1.2454.80574 0 .44315.33826.80573.75168.80573.41343 0 .97385-.36258 1.2454-.80573zm4.3936.0476c0-.417-.35948-.98227-.79883-1.25618-.43936-.27388-.79883.0673-.79883.75818 0 .69089.35947 1.25618.79883 1.25618.43935 0 .79883-.34119.79883-.75819zm-4.793-4.88192c0-1.32949-.35947-2.41723-.79883-2.41723s-.79883 1.08774-.79883 2.41723.35947 2.41723.79883 2.41723.79883-1.08774.79883-2.41723zm58.472-.4019c-.0163-1.32948.14943-1.9709.36825-1.42541.21882.5455.23214 1.63323.0296 2.41723-.20253.78396-.38157.33763-.39785-.99184zm41.904-1.5376c-1.1033-1.69836-1.1147-2.06249-.0919-2.91869 1.2274-1.02746 1.2938-.91097 1.5085 2.64342.16255 2.69149.15403 2.69321-1.4166.27533z" fill="#ea7606" stroke-width="1.005"/>
  <path d="m320.045 649.738c-.93395-.18304-2.5516-1.2392-3.5947-2.347-1.7959-1.9072-1.9106-2.6574-2.1598-14.121-.28792-13.243.41559-17.296 3.2488-18.717 3.8349-1.923 8.9583-1.4798 11.43.98866 1.9242 1.9221 1.9608 2.2051 1.9608 15.2 0 15.393-.56948 17.368-5.3934 18.706-1.6469.45685-3.1741.78373-3.3937.72642-.21968-.0573-1.1636-.25397-2.0975-.43702zm4.8934-18.201v-13.565h-4.793l-.22084 12.735c-.12147 7.0041-.0336 13.222.19517 13.818.24809.64579 1.3045.98078 2.6173.82995l2.2013-.25292v-13.565zm-47.897 17.321c-.23761-.23734-.41376-10.246-.39144-22.242l.0406-21.81h5.3738l.4532 5.386c.24927 2.9623.43581 6.1041.41456 6.9819-.0213.87772-.21335 6.7011-.42685 12.941-.40816 11.929.10834 14.588 2.8334 14.588 2.2025 0 2.4538-1.4324 2.4538-13.984 0-10.194-.1615-11.575-1.4622-12.502-.80419-.57345-1.675-1.8725-1.9351-2.8868-.64147-2.5014 1.2371-3.108 4.6261-1.4936 3.8855 1.8508 4.5709 4.9978 4.2398 19.466-.26174 11.436-.37683 12.179-2.1827 14.098-1.7193 1.8267-2.4805 2.0188-7.7557 1.9575-3.2172-.0374-6.0438-.26222-6.2814-.49956zm24.331-17.321v-17.953h4.793v35.906h-4.793zm37.545-4.338v-22.393h5.7336l-.27066 4.789c-.29174 5.162-.26351 5.199 3.0195 3.9522 3.092-1.1742 6.363.32988 7.4422 3.4222.4853 1.3906.85067 8.8981.85067 17.479v15.042h-5.5918l-.0122-14.961c-.006-8.2286-.31699-15.441-.68946-16.028-.37247-.58697-1.5353-.94603-2.584-.79792l-1.9067.26929-.39941 15.56-.39942 15.56-5.1924.50008v-22.393zm26.02 21.039c-1.7523-1.7503-2.1782-3.9812-1.8983-9.9429l.24237-5.1619 10.7842-7.0272v-3.8392c0-2.861-.36144-4.0324-1.4186-4.5976-2.6232-1.4023-4.1732.35505-4.1732 4.7315 0 3.8569-.0565 3.95-2.3965 3.95-2.3757 0-2.3965-.0385-2.3965-4.4411 0-2.4426.36371-5.1199.80823-5.9496 1.0748-2.0061 5.6007-3.182 9.1604-2.38 5.2991 1.1938 5.2091.86096 5.2091 19.252v16.659h-2.3299c-1.2814 0-2.4947-.44883-2.696-.99741-.29289-.79792-.57781-.79792-1.4246 0-1.4826 1.3971-5.9699 1.2438-7.4707-.25528zm7.873-3.9908c.91881-.91778 1.2553-2.8638 1.2553-7.2597v-6.0058l-2.5962 1.6375c-2.3668 1.4928-2.6176 2.0382-2.839 6.173-.13358 2.4945-.055 5.0245.17463 5.6222.55885 1.4547 2.4611 1.3753 4.0053-.16713zm14.037 3.302c0-1.0678 2.1382-8.0696 4.7514-15.56 2.6133-7.49 4.6803-13.667 4.5933-13.726-.087-.0593-1.9556-.17202-4.1523-.25048-3.6966-.13202-4.013-.30231-4.2469-2.286l-.25277-2.1433h14.485v2.3334c0 1.2834-1.9771 7.9694-4.3936 14.858-2.4165 6.8884-4.3936 13.02-4.3936 13.625 0 .80232 1.1912 1.1008 4.3936 1.1008 4.1539 0 4.3936.1088 4.3936 1.9948 0 1.9878-.0266 1.9948-7.5889 1.9948-7.5067 0-7.5889-.0211-7.5889-1.9415zm24.41.1681c-.86373-1.2318-1.2435-3.6472-1.2435-7.9083 0-5.7407.14358-6.2549 2.2341-8.0012 1.2288-1.0264 3.5653-2.5763 5.1924-3.4441 2.4637-1.314 2.9583-2.0035 2.9583-4.1239 0-1.4003.20041-3.0677.44535-3.7053.72098-1.8767-1.8519-3.9171-3.6961-2.9312-1.2058.64459-1.5422 1.6886-1.5422 4.786 0 3.883-.0483 3.9616-2.433 3.9616h-2.433l.2362-5.386c.23518-5.3626.24937-5.3924 3.2666-6.8647 3.5674-1.7407 7.7932-1.2748 10.195 1.1242 1.4372 1.4356 1.5531 2.7717 1.5531 17.909v16.358h-2.3299c-1.2814 0-2.4669-.41055-2.6344-.91235-.22842-.68451-.73064-.68451-2.0111 0-2.8249 1.5102-6.3709 1.1166-7.7576-.86105zm8.2614-3.3157c.50242-.60469 1.0586-3.6568 1.236-6.7824.35832-6.3138-.19595-6.8949-3.8432-4.0292-1.8387 1.4447-2.1048 2.235-2.1048 6.2504 0 2.5282.23965 4.836.53256 5.1286.90393.90291 3.2189.58859 4.1794-.56748zm14.46-12.864v-17.953h2.3965c1.3181 0 2.3965.36829 2.3965.81842 0 .46658 1.0273.28779 2.3896-.4159 1.4241-.73558 3.2068-1.0294 4.4122-.72724 3.5438.88845 4.3818 3.1208 4.3818 11.673v7.8017h-4.733l-.22967-7.3808c-.22084-7.0963-.30319-7.3912-2.1364-7.6501-1.0487-.14811-2.2115.21095-2.584.79792-.37247.58698-.68274 7.7997-.68946 16.028l-.0122 14.961h-5.5918v-17.953zm23.897 15.888c-1.8449-1.96-1.9414-2.6049-2.1983-14.688-.22332-10.503-.0452-13.108 1.0546-15.423 1.6451-3.4629 5.1795-5.16 8.0372-3.8594l1.9611.89251v-9.5409h5.617l-.21234 22.142-.21235 22.142-6.0587.19203c-5.5968.17738-6.2058.0358-7.9883-1.858zm8.0276-4.266c.45481-.84887.82693-6.3888.82693-12.311 0-8.7247-.23815-11.005-1.2553-12.021-1.5066-1.5049-2.1146-1.5583-3.3779-.29637-1.0098 1.0087-1.4176 22.453-.47371 24.91.67313 1.7522 3.2824 1.5807 4.28-.28125zm-164.52-35.56c0-2.5711.1902-2.7927 2.3965-2.7927s2.3965.22164 2.3965 2.7927-.1902 2.7928-2.3965 2.7928-2.3965-.22165-2.3965-2.7928zm-115.83-19.37c-3.3129-.97015-5.4121-2.3024-8.5346-5.4163-5.5663-5.5511-6.5854-9.2505-6.5256-23.689l.0454-10.972h18.0264l.0354 10.16c.0336 9.6401.13031 10.238 1.8893 11.675 1.0196.83327 1.7384 1.9164 1.5971 2.407-.16062.55795.12353.51843.75889-.10551.55861-.54857 1.607-.99741 2.3297-.99741 1.9329 0 3.6806-2.3903 4.1906-5.7312.2467-1.6162 1.6638-4.8478 3.1491-7.1814 3.7667-5.9178 3.9482-6.2377 3.539-6.2377-.19981 0-1.5254 1.809-2.9458 4.02s-2.7116 3.891-2.8694 3.7334c-.15777-.1576-.40843-4.1907-.557-8.9625l-.27016-8.676-10.7442-9.9696 2.2374-1.2341 2.2374-1.2342-3.2731.47199c-3.5295.50894-4.515-.10067-12.967-8.0214-5.296-4.963-5.8244-6.4854-5.9967-17.278-.0834-5.2252.0975-10.129.40206-10.898.43307-1.0928.58657-1.1364.70447-.20033.0829.65829.10817 1.4662.0562 1.7953-.052.32914.44461.59844 1.1036.59844.65903 0 1.1982-.5386 1.1982-1.1969 0-.65829-.35947-1.1969-.79882-1.1969-.43936 0-.79883-.50868-.79883-1.1304 0-.62171-.39431-1.2617-.87625-1.4222-.56785-.18907-.90325-3.8032-.95299-10.269-.0705-9.1635.0824-10.265 1.8748-13.506 2.058-3.7217 7.2322-7.5044 11.537-8.4344 13.843-2.9903 26.169.45067 30.744 8.5825 1.8043 3.2067 1.9351 4.3001 2.1516 17.989l.2305 14.574h-17.5494v-11.047c0-10.028-.14714-11.18-1.5952-12.489-2.0391-1.8433-6.2072-1.7393-8.1521.20337-1.3546 1.353-1.5013 2.8262-1.4806 14.861.0166 9.6468.31199 13.771 1.0629 14.842 1.0618 1.5142 10.432 9.8013 19.751 17.468 6.2503 5.1421 8.0356 7.8822 6.0708 9.3173-1.1939.87203-1.1662.99935.30126 1.3827 1.514.39548 1.6163 1.0549 1.6163 10.424 0 5.5009-.31127 10.194-.6917 10.429-.38043.23485-.50806 1.3866-.28359 2.5595.2821 1.474.1257 1.9581-.50655 1.5678-.57964-.35783-.91465.0695-.91465 1.1667 0 1.7278-.003 1.7275-1.6669-.15239-1.5949-1.8023-1.5925-1.7716.0544.70953.94673 1.4263 1.8978 2.5933 2.1135 2.5933.21569 0 .16999-.35907-.10154-.79793-.27154-.43886-.11302-.79793.35226-.79793.5139 0 .84598 2.1669.84598 5.5202 0 5.927-.53096 8.3041-1.6944 7.5859-.40048-.24724-.52134-.78378-.26855-1.1923.25277-.40853-.10084-.74279-.7858-.74279-.68497 0-1.2454.5386-1.2454 1.1969 0 .65829.35947 1.1969.79883 1.1969.43935 0 .79882.35907.79882.79793s-.62907.80342-1.398.81014c-1.0086.009-1.1172.19026-.38984.65144 1.7863 1.1327-.4 5.3698-3.998 7.7481-2.6712 1.7657-3.5538 2.0005-4.7395 1.2608-1.1684-.72886-1.4571-.67048-1.4571.29473 0 .66201-.38069 1.2036-.84597 1.2036-.46529 0-.61837-.44884-.34018-.99741.2782-.54858-.01-.36904-.64004.39896-1.4784 1.8016-8.7638 1.7924-14.949-.019zm17.258-4.752c-.26544-.26515-.45425.20613-.41956 1.0473.0383.92954.22762 1.1186.48262.48208.23076-.57601.20238-1.2642-.063-1.5294zm-15.927-2.1528c-.50326-1.0652-1.0415-1.8104-1.196-1.656-.4958.49523.74673 3.5927 1.4412 3.5927.36841 0 .25809-.87151-.24516-1.9367zm15.542-2.5916c-.9417-1.6176-1.1691-1.0998-.39824.90671.27395.71311.66637 1.1285.87204.92304.20568-.20544-.007-1.0288-.4738-1.8298zm-23.965-3.9896c-.94169-1.6176-1.1691-1.0998-.39824.90672.27395.7131.66638 1.1285.87205.92303.20567-.20544-.007-1.0288-.47381-1.8298zm31.856-8.2386c0-.43886-.38069-.79793-.84597-.79793-.46529 0-.62381.35907-.35227.79793s.65223.79793.84598.79793c.19374 0 .35226-.35907.35226-.79793zm1.1036-21.984c.27279-.71009.13888-1.0304-.31395-.75084-.43432.26812-.78968.82538-.78968 1.2383 0 1.1478.57258.89484 1.1036-.4875zm-1.9024-18.71c0-.43886-.38069-.79793-.84598-.79793s-.6238.35907-.35227.79793c.27154.43886.65223.79793.84598.79793s.35227-.35907.35227-.79793zm-31.559-18.343c.27986-.45231-.0408-.58608-.75168-.31359-1.3839.53045-1.6371 1.1024-.48805 1.1024.41342 0 .97131-.35495 1.2397-.78879zm35.154-22.351c-.27154-.43886-.65223-.79793-.84597-.79793-.19375 0-.35227.35907-.35227.79793s.38069.79792.84597.79792c.46529 0 .62381-.35906.35227-.79792zm-1.5976-8.7772c-.27154-.43887-.92184-.79243-1.4451-.78572-.57165.007-.47312.32095.24685.78572 1.5346.99065 1.8112.99065 1.1982 0zm5.1924-2.3938c0-.43886-.38069-.79792-.84598-.79792-.46528 0-.6238.35906-.35226.79792.27153.43886.65222.79793.84597.79793s.35227-.35907.35227-.79793zm-8.7871-.31359c0-.17248-.55788-.52743-1.2397-.78879-.7109-.27249-1.0316-.13872-.75169.31359.46912.7582 1.9914 1.1214 1.9914.4752zm-5.0372-3.3023c-2.0036-1.7606-3.7499-2.5286-3.7499-1.649 0 .38582 5.0233 3.6471 5.5918 3.6304.21967-.006-.60918-.89809-1.8419-1.9814zm-6.1464-3.9644c-.54695-.65829-1.3998-1.1855-1.8952-1.1715s-.20294.55257.64991 1.1969c1.992 1.505 2.508 1.4945 1.2453-.0254zm-95.339 119.91c-.19825-.75746-.0959-2.5528.22748-3.9896.32335-1.4368.43723-3.0612.25304-3.6098-.52085-1.5513-1.7994-1.1733-1.7994.53196 0 .84114-.44934 1.6804-.99854 1.8651-.77847.26171-.75691.62808.09781 1.6623.74885.90615.80324 1.3266.1716 1.3266-.6416 0-.69005.43803-.15825 1.4306.6138 1.1456.44663 1.4547-.83911 1.5514-1.0459.0787-1.4617-.25372-1.1928-.95362.22703-.59095.2529-1.2341.05751-1.4293-.19539-.19517-.37144-10.913-.39121-23.816-.0532-34.715-.12836-35.031-8.33-35.031-2.4165 0-4.406.2693-4.4212.59844-.01518.32915-.06982 11.281-.12134 24.337-.06303 15.96-.36803 23.738-.93095 23.738-.51637 0-.46986.36698.12134.95752 1.3991 1.3975 1.1713 2.4864-.39456 1.8863-1.2717-.48743-1.2717-.42872 0 .97487.86515.95491 1.3532 2.8378 1.3532 5.2209v3.7273l-2.9956-.0287c-2.0196-.0193-3.7764-.69048-5.3921-2.0599l-2.3965-2.0312 2.5962 1.2825c3.4761 1.7172 3.2872.97012-.38514-1.5225-2.9797-2.0224-3.0787-2.7571-.16147-1.1976 1.0114.54065 1.5451.55035 1.5451.0281 0-1.2421-2.7597-2.4143-4.5705-1.9413-1.5379.40171-6.6131-1.6016-6.6131-2.6104 0-.25573.9288-.23212 2.064.0525 1.3384.33554 1.8835.22569 1.5505-.31246-.7769-1.2556-.02676-1.0249 4.0383 1.242 2.325 1.2966 3.5883 1.6698 3.3758.99741-.18677-.59099-1.421-1.6253-2.7428-2.2985-4.0978-2.0871-7.2712-4.7065-5.7368-4.7352.74294-.0139 1.573.33379 1.8445.77265.27154.43886.87598.79792 1.3432.79792.57053 0 .55053-.35983-.06095-1.0958-.50073-.60267-.6944-1.6581-.43038-2.3453.2959-.77024-.15846-1.6479-1.1845-2.2879-2.0982-1.3089-2.2018-2.5937-.11936-1.4804.84983.4543 2.1978.80169 2.9956.77199 1.2325-.0459 1.1873-.18103-.3003-.89909-2.1213-1.024-3.0621-3.0366-1.4195-3.0366.64524 0 1.1732.3478 1.1732.77289 0 .42508.61687.53643 1.3708.24744 1.1212-.42977.94036-.70119-.99322-1.4906-1.4152-.57782-2.3662-1.5578-2.3694-2.4418-.0072-2.0759 2.0392-3.5021 3.7293-2.5986.89309.47742 1.5572.41009 1.9321-.1959.31719-.51264.22447-.70925-.20844-.442-.42887.26476-1.3831-.22247-2.1205-1.0827-1.7705-2.0654-1.6913-2.5625.30729-1.9288 1.5022.47626 1.5554.37435.60109-1.152-.57581-.92099-1.6769-1.8742-2.4468-2.1183-.76997-.2441-1.3999-.71116-1.3999-1.0379 0-.32675-1.0684-1.3831-2.3743-2.3475-1.6481-1.2171-2.2328-1.385-1.9116-.54903.25448.66242.74178 1.2044 1.0829 1.2044.34111 0 .83625.8079 1.1003 1.7953.44975 1.6818-1.1187 3.7902-2.8195 3.7902-.34246 0-.61542-18.833-.60657-41.851.01502-39.036.10733-41.816 1.3723-41.331 1.2574.48198 1.2546.36486-.03954-1.608-1.8868-2.8764-1.7423-3.8687.20184-1.3861.85917 1.0972 1.5701 1.5944 1.5799 1.105.0097-.48939-.64712-1.7461-1.4597-2.7928-1.4807-1.907-2.0477-4.9936-.7728-4.2065.37329.23045.46646.84302.20703 1.3613-.25942.51824.02884.3345.64064-.40832 1.0209-1.2396 1.2291-1.1531 2.5336 1.0526.78168 1.3218 1.5947 2.23 1.8066 2.0183.21197-.21174-.22387-1.3138-.96854-2.449s-.99159-2.064-.54871-2.064 1.0121.5386 1.265 1.1969c.25289.65829.87457 1.1969 1.3815 1.1969.66438 0 .64429-.33391-.07197-1.196-.84653-1.0189-.65398-1.1747 1.3001-1.0522 1.2616.0791 2.8122.52752 3.4457.9965.84833.62799 1.0032.60499.58752-.0873-.93596-1.5589 1.6593-1.8297 14.049-1.4659 14.137.41513 17.566 1.5308 21.1 6.866l2.2548 3.4043v21.202c0 19.534-.12129 21.403-1.5416 23.747-.84786 1.3997-2.7351 3.1869-4.1938 3.9716-1.4588.7847-2.6441 1.6144-2.6341 1.8437.01.22935 1.1551.9765 2.5447 1.6603 1.3896.68384 3.2687 2.2355 4.1757 3.4481 1.57 2.099 1.6609 3.3947 1.8944 27.008.19539 19.759.0329 24.938-.79883 25.465-.79815.50564-.80888.66434-.0456.67368.64909.008.99853 1.2688.99853 3.6029v3.5907l-4.1938.0614c-2.3066.0337-5.3438.12355-6.7492.19948-1.8241.0986-2.6585-.25603-2.9158-1.2392zm-22.461-12.24c-3.6097-3.0359-6.0006-4.6166-6.3917-4.2259-.45231.45179 6.9348 6.2103 7.9894 6.228.43936.007-.27959-.89357-1.5977-2.0021zm-5.8433-25.948c-1.8845-1.7381-3.3944-2.6143-3.5819-2.0787-.1783.50928 1.1505 2.2604 2.9529 3.8915 1.8024 1.631 3.4142 2.5664 3.5819 2.0787.16767-.48772-1.1611-2.2389-2.9529-3.8915zm2.8465-.30852c-.76818-.56108-1.3967-1.565-1.3967-2.2308 0-1.4901-2.2205-3.4437-3.0137-2.6515-.31821.31785.04993 1.037.81813 1.598.76818.56108 1.3967 1.3114 1.3967 1.6673 0 1.0319 2.605 3.6232 3.1226 3.1062.25829-.258-.15889-.92816-.92706-1.4892zm18.89-40.249c1.0878-1.2006 1.3944-3.2904 1.5218-10.371.08909-4.9547.4943-8.8682.91834-8.8694.41739-.002.32752-.43308-.19971-.95972-.52723-.52663-.95859-2.2039-.95859-3.7273 0-4.2776-1.8136-5.6882-7.3133-5.6882h-4.6692v31.12h4.6692c3.5592 0 4.993-.35745 6.0315-1.5036zm-26.677-18.04c-.54695-.65829-1.1189-1.1969-1.271-1.1969-.15209 0-.06966.5386.18328 1.1969.2529.65829.82484 1.1969 1.271 1.1969.46756 0 .38992-.50701-.18328-1.1969zm3.5947-13.964c-.27154-.43886-.65223-.79793-.84598-.79793s-.35227.35907-.35227.79793.38069.79793.84598.79793.6238-.35907.35227-.79793zm2.7959-4.3886c-2.3215-3.7521-2.9876-3.0868-.73226.73143.95104 1.6101 1.9053 2.7514 2.1207 2.5363.21532-.21509-.40946-1.6856-1.3884-3.2678zm24.364-.39897c-.27154-.43886-.92183-.79243-1.4451-.78571-.57165.007-.47312.32095.24685.78571 1.5346.99065 1.8112.99065 1.1982 0zm-28.113-2.3421c-.22235-.84929-1.1492-2.1958-2.0596-2.9922-1.6987-1.486-1.5534-1.0175.85023 2.7411 1.4078 2.2014 1.7379 2.2699 1.2094.25115zm3.7362-2.4696c-1.3023-2.4306-1.8441-1.4175-.64632 1.2084.54904 1.2036 1.125 1.8086 1.28 1.3442.15494-.46431-.1302-1.613-.63365-2.5526zm5.6047 1.7725c0-1.7213-2.0582-4.746-2.7555-4.0495-.41029.40981 1.9475 5.4724 2.5558 5.4878.10984.002.19971-.64447.19971-1.4383zm27.959-3.3442c0-.43886-.38069-.79792-.84597-.79792-.46529 0-.62381.35906-.35227.79792s.65223.79793.84598.79793c.19374 0 .35226-.35907.35226-.79793zm145.41 62.438c.008-33.463.29261-60.842.63327-60.842.34067 0 .9685.2693 1.3952.59844.42668.32915.1391.002-.63907-.72634-.77817-.72864-1.4149-2.1649-1.4149-3.1917l-.00003-1.8669 16.176.0982c18.962.11512 26.96 1.5072 26.96 4.6924 0 .6451.48101.9594 1.1032.72089.72331-.27725 1.755.89927 2.9956 3.4162l1.8924 3.8391.11748 46.679c.0646 25.673-.0644 48.023-.28659 49.667l-.40406 2.9878-3.3081-.46038c-1.8195-.25321-4.309-.77541-5.5323-1.1605-1.2846-.40436-2.04-.40247-1.7882.005.23976.38751 1.6001.93144 3.023 1.2087 1.4229.2773 3.5756.69252 4.7838.92272 1.4885.2836 2.1968.91265 2.1968 1.951 0 .84285-.33717 1.5324-.74926 1.5324-1.6582 0-11.563-2.5385-14.527-3.7231-1.7398-.69532-3.3506-1.077-3.5798-.8481-.22913.22887 3.5602 1.7398 8.4208 3.3576s8.8255 3.181 8.8109 3.4739c-.0641 1.2843-3.1476 4.0799-6.2356 5.6535-4.5591 2.3233-13.35 3.2859-27.882 3.0532l-12.176-.1953.0139-60.842zm35.123 51.298c0-.20252-1.4604-.761-3.2453-1.2411-1.7849-.48008-3.8519-1.0384-4.5933-1.2408-.74139-.20237.0899.3467 1.8473 1.2202 2.9736 1.4779 5.9912 2.1134 5.9912 1.2617zm-11.184-4.0204c-1.0984-.62719-2.5363-1.1403-3.1953-1.1403-.69246 0-.35528.48134.79883 1.1403 1.0984.62719 2.5363 1.1403 3.1953 1.1403.69247 0 .35528-.48134-.79882-1.1403zm17.974-3.5907c-.27154-.43886-.8879-.79793-1.3697-.79793-.48179 0-2.1681-.97204-3.7473-2.1601-1.7165-1.2914-2.3894-1.5602-1.6731-.66861 2.0449 2.5453 8.1329 5.797 6.79 3.6266zm5.675-2.1777c-.26544-.26515-.45425.20613-.41956 1.0473.0383.92954.22762 1.1186.48262.48208.23076-.57601.20238-1.2642-.063-1.5294zm-19.693.60244c.79973-.42752 2.2019-2.0433 3.1158-3.5907 1.3366-2.2628 1.431-2.8134.48265-2.8134-1.0046 0-1.1718-2.5393-1.1298-17.155.0491-17.09.0561-17.156 1.8052-17.264 1.7281-.10695 1.7291-.11391.0622-.44088-1.601-.31404-1.6984-.83042-1.7801-9.4365-.0742-7.8125.10944-9.2303 1.2942-9.9924 1.1286-.72601 1.145-.81639.0899-.49507-1.0998.33496-1.3111-.48182-1.4281-5.5215-.0755-3.253.24839-6.6344.71978-7.5142.50395-.94057.54457-1.5996.0986-1.5996-.41717 0-.75564-1.526-.75217-3.3912.0172-9.2053-.0106-9.3186-2.683-10.942-1.3969-.84852-2.8749-1.3358-3.2846-1.0829-.40968.25291-1.0586-.035-1.4422-.6398-.50494-.7963-.70066-.8245-.70952-.10223-.006.54858-.91091.99741-2.0093.99741-1.9089 0-2.0005.2201-2.0745 4.987-.0426 2.7429-.0114 6.3839.0692 8.0912.12382 2.6222-.064 3.0234-1.2097 2.5842-1.1188-.42884-1.2691-.17274-.85812 1.4627.40611 1.6163.25479 1.8893-.81896 1.4777-2.018-.7735-.94688 1.5861 1.1493 2.5319 2.1617.97536 2.2405 2.0252.19223 2.5603-1.2931.33777-1.3986.6535-.62937 1.8838 1.3134 2.1007.0986 2.8782-1.8064 1.1561-2.5233-2.281-1.869.008.69261 2.4231 1.4711 1.387 2.1547 2.7004 1.9039 3.6583-.22002.84041.0235 1.4945.5563 1.4945 1.5438 0 .57309 3.5484-1.0555 3.8587-1.0148.19333-1.2988-.0287-.88734-.69381.39086-.63173.21219-.84729-.50452-.60866-.61035.20323-1.0199.60888-.91002.90144.10984.29258.1997 1.0832.1997 1.7569 0 .96383.32939 1.0489 1.5452.39896 2.1228-1.1348 2.449-1.0502 2.449.63503 0 .80356-.89869 1.9414-1.9971 2.5286-1.0984.58718-1.9971 1.3743-1.9971 1.7491 0 .37482.83877.13253 1.8639-.53842 1.7083-1.118 1.866-1.1029 1.8882.18108.0332 1.9144-1.3869 3.5546-2.6563 3.068-.57457-.22023-1.2571-.0571-1.5168.36265-.25968.4197-.10274.76309.34876.76309s.58514.62836.29699 1.3964c-.45879 1.2228-.35638 1.2603.8239.30126 1.8346-1.4906 1.6982-.39949-.26103 2.0885-.88487 1.1236-1.4291 2.2225-1.2094 2.442.21967.21943 1.1644-.57242 2.0993-1.7597.93495-1.1873 1.8964-1.9624 2.1365-1.7226.24012.23985-.21804 1.1586-1.0181 2.0417-.8001.8831-1.2173 1.8428-.92707 2.1327.29024.28988.52768.10814.52768-.40385 0-.51201.39793-.93092.8843-.93092.52354 0 .65522.56965.32277 1.3964-.30882.76801-.74067 1.935-.95965 2.5933-.35389 1.0639-.30235 1.0639.46382 0 .66995-.93028.86468-.44149.87419 2.1943.0122 3.3845-1.1416 4.6398-1.8336 1.9948-.20093-.768-.40703.28801-.45799 2.3467-.051 2.0587.26139 3.9616.69413 4.2288.48797.30125.60175-.4385.29956-1.9477-.31215-1.559-.1643-2.4334.41145-2.4334.5159 0 .89868 1.3594.89868 3.1917 0 1.7554-.34819 3.1917-.77376 3.1917-.42556 0-.54421.59751-.26366 1.3278.34298.89279.20391 1.1388-.42448.75084-.51403-.31733-.93459-1.0944-.93459-1.7268 0-.63239-.37979-1.1498-.84399-1.1498-.46919 0-.22674 1.0437.54599 2.3504.76449 1.2927 1.5936 2.2254 1.8425 2.0726.24891-.1528.53203.85416.62916 2.2377l.1766 2.5155-1.653-2.5933c-2.3104-3.6247-2.6397-3.2316-.66834.79793 1.638 3.3482 1.6384 3.3659.034 1.3964-1.1946-1.4664-1.6298-1.6577-1.6428-.72212-.021 1.506 2.6718 4.153 3.4421 3.3836.29384-.29353.53427-.1447.53427.33073s-.44934 1.0455-.99854 1.2669c-.79882.32197-.79882.41506 0 .46546.65729.0415.99854 1.4265.99854 4.0526v3.9896h4.0466c2.2257 0 4.701-.34979 5.5007-.77731zm12.74-6.3376c.0438-1.0606-.15691-1.6921-.44599-1.4033-.2891.28876-1.0979.0793-1.7974-.46546-1.1394-.88742-1.1514-.83761-.11485.47875.6363.80809 1.1127 2.783 1.0586 4.3886-.0861 2.5567-.0164 2.6716.56084.92454.36251-1.0972.69494-2.8626.73873-3.9232zm-23.61 1.8939c-.26017-.67721-.64436-1.0602-.85375-.85101-.20939.20916-.14377.76325.14583 1.2313.78769 1.2731 1.2481 1.0257.70792-.3803zm-1.7235-2.5055c-.57666-.2305-1.2656-.20216-1.5311.063-.26545.26514.20637.45373 1.0485.41908.93059-.0383 1.1199-.22736.48263-.48207zm-1.4586-8.6311c-.2529-.6583-.60109-1.1969-.77376-1.1969s-.31395.5386-.31395 1.1969c0 .65829.3482 1.1969.77376 1.1969s.56684-.5386.31395-1.1969zm.48487-7.6271c-.48966-.91393-.64143-2.7281-.34209-4.0895.37308-1.6967.26694-2.2795-.34624-1.9009-1.1827.73011-1.1299 5.4727.0744 6.6755 1.4046 1.403 1.61 1.1738.61399-.68514zm-5.0841-2.1309c-.26544-.26514-.45425.20614-.41956 1.0473.0383.92955.22762 1.1186.48262.48209.23076-.57601.20238-1.2642-.063-1.5294zm2.1895.14845c-.26017-.67722-.64436-1.0602-.85375-.85101-.2094.20916-.14378.76325.14582 1.2313.78769 1.2731 1.2481 1.0258.70793-.38029zm-2.2727-2.7583c-.27154-.43886-.85318-.79793-1.2925-.79793-.43936 0-.57667.35907-.30513.79793s.85317.79793 1.2925.79793c.43935 0 .57666-.35907.30513-.79793zm3.9032-4.3886c.48541-2.2571.44569-2.3053-.69569-.8449-.66577.85188-1.2105 2.2702-1.2105 3.1518 0 2.2061 1.2648.67543 1.9062-2.3069zm-7.0623-.83419c-.75409-1.5874-1.5355-2.7218-1.7365-2.5211-.20096.20074.25366 1.6617 1.0103 3.2465.75661 1.5848 1.538 2.7193 1.7365 2.5211.19845-.19823-.25617-1.6591-1.0103-3.2465zm7.3983-5.5703c-.24595-.24568-.69262.19717-.99261.9841-.4335 1.1372-.34175 1.2289.44719.44668.54593-.54126.79137-1.1851.54542-1.4308zm2.9445-10.742c.27986-.45231-.0408-.58607-.75168-.31359-1.3839.53045-1.6371 1.1024-.48805 1.1024.41343 0 .97131-.35496 1.2397-.7888zm-3.2984-1.9994c-.25193-.65577-.81823-.96995-1.2585-.69819-.49216.30384-.38301.75831.28342 1.1801 1.4545.92058 1.5044.89594.97504-.48191zm3.7035-4.3932c0-.43886-.34819-.79793-.77376-.79793-.42556 0-.55239-.62837-.28184-1.3964.36706-1.042.25268-1.1771-.45067-.5324-.51842.47519-.71261 1.4626-.43152 2.1943.55513 1.445 1.9378 1.8249 1.9378.53239zm-5.1712-9.421c-.24595-.24567-.89053-.00051-1.4324.54481-.78306.78805-.6913.8797.44719.44668.78782-.29964 1.2312-.74581.98522-.99149zm35.252-5.9543c-.21883-.54022-.38454.095-.36826 1.4116.0163 1.3166.19532 1.7586.39785.98222.20254-.77636.18922-1.8536-.0296-2.3938zm-33.925-.33041c-.57666-.23049-1.2656-.20215-1.5311.063-.26544.26514.20637.45373 1.0485.41909.9306-.0383 1.1199-.22736.48263-.48208zm33.129-5.4994c-.39286-3.7658-1.3258-5.8526-1.3258-2.9655 0 2.1738.90817 6.6162 1.3526 6.6162.19473 0 .18267-1.6428-.0268-3.6507zm-1.254-17.137c-.81516-2.0086-.81507-1.8203.004 9.2173.16416 2.2116.32163 1.5863.51276-2.036.15172-2.8752-.0809-6.1068-.51702-7.1813zm-26.5 2.2092c-.18306-.12418-1.0518-.75255-1.9305-1.3964-1.4778-1.0828-1.5154-1.0659-.50131.22579.60299.768 1.4717 1.3964 1.9305 1.3964.45878 0 .68437-.10161.50131-.22579zm-4.7264-3.2795c0-.17248-.55788-.52743-1.2397-.78879-.7109-.27249-1.0316-.13872-.75168.31359.46912.7582 1.9914 1.1214 1.9914.4752zm-5.5918-3.676c-1.9328-1.5101-3.1953-1.9931-3.1953-1.2224 0 .38529 4.0822 2.7433 4.793 2.7685.21968.008-.49927-.68796-1.5977-1.5462zm35.999-1.863c-.66292-.66217-.80202-.38012-.53369 1.0822.51821 2.8241.62159 2.9517 1.0486 1.2946.20992-.81462-.0218-1.8842-.51493-2.3767zm15.325 119.42c-1.2705-.50195-1.4645-43.766-.19971-44.546.43936-.27123.79883-.85221.79883-1.2911 0-.43886-.34179-.58693-.75952-.32905-.46984.29005-.71418-4.3764-.64064-12.235.10167-10.864.29031-12.638 1.3028-12.25.96273.36902.93319.0963-.15819-1.4601-1.1906-1.698-1.342-4.8669-1.342-28.087v-26.173l40.79.1312-.10732 9.1968-.10734 9.1968-3.7122-.17026c-2.0417-.0936-7.0374-.12391-11.101-.0673l-7.3892.10295v28.726h21.568v18.4726l-2.1968-.14469c-1.2082-.0796-6.0611-.10664-10.784-.0602l-8.5874.0846v14.075c0 12.469-.15951 14.196-1.398 15.135-1.3314 1.0095-1.3314 1.0612 0 1.0854 1.2044.0219 1.398.8509 1.398 5.9873v5.9619l10.984.22199 10.984.222.22542 8.9294.22543 8.9294-9.6432.24681c-7.6491.19576-9.8845.006-10.81-.9216-.80541-.80659-1.1667-.86835-1.1667-.19948 0 .65976-1.6436.96891-5.1512.96891-4.3088 0-5.4845-.30856-7.1894-1.8868-1.121-1.0378-2.0382-2.2945-2.0382-2.7928 0-.49825-.35947-.90591-.79882-.90591-.43936 0-.79883.5386-.79883 1.1969 0 .65829.32101 1.1969.71336 1.1969.67561 0 1.9667 2.4132 1.5022 2.8078-.66079.56137-3.5539.98453-4.4124.64538zm19.455-4.833c-.26545-.26514-.45425.20614-.41956 1.0473.0383.92955.22761 1.1186.48262.48208.23075-.576.20238-1.2642-.063-1.5294zm-15.19-43.89c-.26544-.26514-.45424.20614-.41956 1.0473.0383.92955.22762 1.1186.48262.48208.23076-.576.20238-1.2642-.063-1.5294zm-1.6489-3.8721c-.29364-1.9559-.8546-3.3583-1.2466-3.1163-.39197.24198-.53134.91199-.3097 1.4889.22162.57691.52441 2.0914.67285 3.3656.4219 3.6215.5488 3.9859.99775 2.8653.23076-.57601.17931-2.6476-.11433-4.6035zm5.9593.0903c0-.71181-.46859-.99223-1.1936-.71431-.65651.25164-.99477.77898-.75169 1.1718.69708 1.1266 1.9453.83303 1.9453-.45753zm3.9941-.424c0-.43886-.56042-.79793-1.2454-.79793-.68496 0-1.0232.35907-.75168.79793.27154.43886.83197.79793 1.2454.79793s.75168-.35907.75168-.79793zm3.3451-.54507c-.57666-.2305-1.2656-.20216-1.5311.063-.26545.26515.20637.45374 1.0485.41909.93059-.0383 1.1199-.22736.48263-.48207zm-12.834-5.579c-.94169-1.6176-1.1691-1.0998-.39824.90671.27395.71311.66637 1.1285.87205.92304.20567-.20544-.007-1.0288-.47381-1.8298zm-2.0114-.84115c-.26544-.26515-.45425.20613-.41956 1.0473.0383.92954.22762 1.1186.48262.48208.23076-.57601.20238-1.2642-.063-1.5294zm1.956-6.0899c-1.1188-2.9393-1.7458-2.6475-.70704.32903.4673 1.339.99787 2.2864 1.179 2.1055.18118-.18096-.0312-1.2765-.472-2.4345zm1.9834-6.403c-1.9928-3.3668-3.6232-6.4702-3.6232-6.8965 0-.42622-.35947-.77494-.79883-.77494-1.2716 0-.9528.95525 1.5977 4.7876 1.3143 1.9749 2.3912 3.8394 2.3931 4.1435.007 1.1693 3.5251 6.4483 3.7827 5.6764.1495-.44798-1.3586-3.5692-3.3514-6.936zm5.1639 1.1058c-.51055-.95289-1.1038-1.5572-1.3183-1.3429-.21452.21429.0706 1.1264.63361 2.0269 1.3313 2.1293 1.892 1.5693.68471-.68393zm-7.1656.0444c-.45718-.85328-1.2261-1.7952-1.7086-2.0931-.48257-.2979-.25956.40024.49557 1.5514 1.599 2.4376 2.4269 2.8073 1.213.54164zm8.7633-2.0393c-.56458-.6795-1.2062-1.0559-1.4259-.83649-.21968.21943.0626.95492.62708 1.6344.56457.6795 1.2062 1.0559 1.4259.83649.21967-.21943-.0625-.95492-.62708-1.6344zm-7.7418-5.785c-.66374-1.8454-3.4167-4.4801-4.0355-3.8621-.4022.40175 3.5811 5.2584 4.3128 5.2584.12369 0-.0008-.62837-.27735-1.3964zm125.04 78.966c-1.1901-.23404-1.3296-1.917-1.3075-15.776.0224-14.089.5277-18.292 1.673-13.918.22979.87772.88282 1.5958 1.4512 1.5958.80374 0 .82035-.21278.0748-.95751-1.5298-1.5281-1.1097-2.3711.69952-1.404 1.517.81098 1.5826.74547.77073-.76985-.48806-.91094-.62311-1.6562-.3001-1.6562s.14095-.44584-.40457-.99074c-.78993-.78904-1.1477-.74843-1.7574.19948-1.4233 2.2128-2.2491-.75281-2.2491-8.0768 0-5.413.26335-7.0644 1.1827-7.4168.6659-.25524.96941-.10866.69462.33546-.26842.43384-.10736.83368.35792.88854.46529.0549 1.2953.15664 1.8445.22618 1.895.23995 2.1182-1.5035.42311-3.3058-.94969-1.0098-1.2737-1.8077-.73396-1.8077.69075 0 .74186-.41867.1793-1.4686-.43278-.80776-.75597-2.1543-.71819-2.9922.0378-.83798-.40508-2.6008-.98414-3.9174s-1.2115-3.1119-1.4055-3.9896c-.59919-2.7113-.63034-38.045-.0322-36.533.36562.92456.61892.1647.72226-2.1667.0875-1.9749.21971-4.6019.29371-5.8378s-.15208-2.4241-.50242-2.6404c-.35035-.21628-.63699.28925-.63699 1.1234 0 1.943-4.5122 3.3651-10.677 3.3651h-4.5006v-18.3524h43.936v18.3524h-12.7812l-.0511 46.878c-.0281 25.783-.009 50.12.0432 54.082l.0943 7.2035-7.033-.006c-3.8681-.003-7.6325-.1234-8.3652-.2675zm3.8764-37.177c-.23243-.60505-.10881-2.4898.27471-4.1884.74757-3.3109-.32806-5.7444-1.3365-3.0237-.31187.84139-.95273 1.7991-1.4241 2.1282-.57683.40275-.46527.85937.34115 1.3964 1.0651.70927 1.0651.88523 0 1.5836-.80127.5254-.86744.78976-.19971.79793.54919.006.95596.28151.90394.61066-.1933 1.2228.11888 1.7953.97889 1.7953.48636 0 .69412-.49504.46167-1.1001zm3.8464-24.434c-.27154-.43886-.65223-.79793-.84598-.79793s-.35227.35907-.35227.79793.38069.79793.84598.79793.6238-.35907.35227-.79793zm-5.8448-15.334c-.57321-.57256-.94528-.61967-.94528-.11969 0 1.0651.9447 2.0087 1.4778 1.4762.227-.22674-.0126-.83716-.53255-1.3565zm2.4357-22.303c-.44017-.43968-.65474.47092-.54095 2.2958.25187 4.0392.5419 4.3868.94074 1.1277.18136-1.4821.002-3.0226-.39979-3.4234zm-3.6291 1.1311c-.20093-.76801-.36533-.13964-.36533 1.3964s.1644 2.1644.36533 1.3964c.20092-.768.20092-2.0247 0-2.7927zm8.2364-3.3912c0-.43886-.38069-.79792-.84598-.79792-.46528 0-.6238.35906-.35226.79792.27153.43886.65222.79793.84597.79793s.35227-.35907.35227-.79793zm15.707-18.552c-.2216-.54857-.40292-.0997-.40292.99741 0 1.0972.18132 1.546.40292.99741.2216-.54858.2216-1.4462 0-1.9948zm41.392 120.06-6.4081-.2288.2393-13.735c.13161-7.5542.27595-15.53.32074-17.725.0448-2.1943.40788-4.4018.80685-4.9056 1.0012-1.2642 1.5142-4.2705.72881-4.2705-.35385 0-1.0625-2.6032-1.5747-5.785-.94867-5.8925-.52749-10.972.90982-10.972.44198 0 .35396-.53297-.19766-1.1969-.82284-.99034-.74013-1.1969.47934-1.1969 1.3781 0 1.3707-.0721-.11364-1.1106-1.4593-1.021-1.574-1.9327-1.4205-11.296.11183-6.8214.4793-10.378 1.1126-10.769.52011-.32108.68891-.99872.37513-1.5059-.3138-.50715-.12927-1.4532.41005-2.1023.80841-.97298.75036-1.092-.33064-.6776-1.0615.40688-1.3112-.0281-1.3112-2.2843 0-1.5328.537-3.8154 1.1933-5.0724.65633-1.257 1.1955-3.273 1.1982-4.4798.002-1.2069.38561-2.1943.8509-2.1943.46528 0 .6321-.34565.3707-.76812-.43249-.69901.71535-5.4831 4.219-17.584.69884-2.4137 1.8287-4.826 2.5107-5.3606 1.1941-.93596 12.024-1.4726 12.024-.59575 0 .23487-.62287 1.4018-1.3842 2.5933-1.2727 1.9918-1.2752 2.0801-.0309 1.0968.74427-.5882 1.5711-1.7552 1.8374-2.5933.43578-1.3715 1.3171-1.5238 8.818-1.5238 4.5836 0 8.3595.2693 8.3908.59845.0313.32914.11247 4.3686.18039 8.9767l.12351 8.3782-3.5754.0405c-17.363.19647-18.354.29901-18.354 1.8989 0 .963-.6737 1.67-1.7974 1.8862-1.783.34302-1.7822.34667.0889.45446 1.7419.10035 1.8409.33768 1.294 3.1009-.32573 1.6457-.56674 3.3513-.5356 3.7902.0312.43886.31086 4.1193.62157 8.1788.40955 5.3507.3127 7.3808-.35213 7.3808-.50439 0-.91707.38026-.91707.84502s.32877.64205.7306.39399.85117-.10406.99853.32001c.14745.42431 4.6417.85896 9.994.96656 9.0773.18248 9.6749.29106 8.9587 1.6277-.98426 1.837-.0159 1.8623 1.3722.0358 1.5338-2.0182 1.4072.20462-.14652 2.5732-.6922 1.0552-1.743 1.7329-2.3352 1.5059-.59218-.22699-1.4637.30967-1.9368 1.1926-1.3762 2.5685-.96126 3.0816.73757.91227 1.0566-1.3493 1.5736-1.6075 1.5976-.79793.0239.80607.5384.54553 1.5756-.79793l1.54-1.9948-.1302 13.9638h-21.358v6.4949c0 5.0511-.28606 6.7039-1.2868 7.4348-1.1784.86071-1.1717 1.0549.0793 2.3045 1.0959 1.0946 1.1731 1.597.39018 2.5393-.7785.93698-.75415 1.1796.12039 1.1989.69951.0155.55566.33803-.39745.89115-1.2031.69818-1.2808.99856-.39942 1.5435 1.1408.70529 1.2207 1.4469 1.3904 12.901l.10339 6.9819h21.568l.11126 3.7902c.3255 11.087-.54004 16.176-2.5413 14.94-.57893-.3574-20.086-.52072-23.132-.19368-1.0984.1179-4.8807.1114-8.4052-.0144zm10.513-14.333c-.0864-1.0871.46325-1.3704 2.4815-1.2791 1.4258.0645 2.3932-.20481 2.1496-.59844-1.2583-2.0337-6.8804.0581-6.1377 2.2837.49846 1.4937 1.6332 1.1878 1.5065-.40609zm13.869-2.2326c0-.94266-1.5104-.94087-1.8727.002-.29512.76822-.057 1.0039.71513.70797.63666-.2442 1.1576-.56379 1.1576-.71037zm-15.453-12.544c-.21882-.54022-.38453.095-.36825 1.4116.0163 1.3166.19531 1.7586.39785.98223.20253-.77636.18921-1.8536-.0296-2.3938zm.27484-3.376c0-.65829-.35947-1.1969-.79882-1.1969-.43936 0-.79883.5386-.79883 1.1969 0 .65829.35947 1.1969.79883 1.1969.43935 0 .79882-.5386.79882-1.1969zm-2.3965-3.9896c.54695-.65829.81472-1.1969.59504-1.1969s-.84692.5386-1.3939 1.1969c-.54695.65829-.81472 1.1969-.59504 1.1969s.84692-.5386 1.3939-1.1969zm-3.1953-3.2388c0-.19353-.35948-.35187-.79883-.35187-.43936 0-.79883.38026-.79883.84502s.35947.6231.79883.35187c.43935-.27123.79883-.65149.79883-.84502zm5.7865-2.4778c-.55193-.22226-.76599-.78799-.47569-1.2572.31459-.50845.14999-.61981-.40747-.27568-1.0998.67893-.4394 2.091.93529 2 .68095-.0451.66613-.17787-.0521-.46712zm18.178-25.45c0-.19353-.35947-.35187-.79883-.35187-.43935 0-.79883.38026-.79883.84502s.35948.6231.79883.35187c.43936-.27123.79883-.65149.79883-.84502zm-10.385-3.5907c0-.46476-.35947-.6231-.79882-.35187-.43936.27124-.79883.6515-.79883.84503 0 .19352.35947.35187.79883.35187.43935 0 .79882-.38026.79882-.84503zm3.1953-.75083c0-.43886-.38069-.79793-.84598-.79793-.46528 0-.6238.35907-.35227.79793.27154.43886.65223.79793.84598.79793s.35227-.35907.35227-.79793zm5.5918-2.6793c0-1.0138-.36897-.56113-1.5335 1.8814-.89681 1.8809-.88018 1.9064.2912.44594.68328-.85188 1.2423-1.8992 1.2423-2.3273zm3.9687-2.4055c.014-.38289-.5138-.24916-1.1728.29718-.65903.54633-1.1982 1.5566-1.1982 2.245 0 1.002.23394.94276 1.1728-.29718.64505-.85188 1.1843-1.8622 1.1982-2.245zm-32.727 1.0951c0-.43886-.35947-.79792-.79883-.79792-.43935 0-.79882.35906-.79882.79792s.35947.79793.79882.79793c.43936 0 .79883-.35907.79883-.79793zm27.959-.8362c0-1.4406-1.4394-1.4505-1.8158-.0125-.27992 1.0692-.0676 1.3998.70801 1.1026.6093-.23355 1.1078-.72409 1.1078-1.0901zm-19.868-28.089c.86843-1.6279.8338-1.6932-.37131-.70023-.73096.60232-1.329 1.4102-1.329 1.7953 0 1.2188.70986.76164 1.7003-1.0951zm2.5986-5.0285c.27279-.71009.13887-1.0304-.31395-.75083-.43432.26812-.78968.82537-.78968 1.2383 0 1.1478.57258.89485 1.1036-.4875zm4.0888-6.7409c.6816-1.3166 1.0595-2.3938.83986-2.3938-.21968 0-.95709 1.0772-1.6387 2.3938-.6816 1.3166-1.0595 2.3938-.83985 2.3938.21968 0 .95708-1.0772 1.6387-2.3938zm142.03 110.16c.29906-4.8699.91434-8.0401 1.8761-9.6664l1.4311-2.42 18.4.44639.17302 5.0177c.1058 3.0684-.12695 4.8325-.59913 4.541-1.0448-.64503-.98311.68346.0812 1.7466.46933.46879.73893 2.2462.59912 3.9497l-.2542 3.0974h-5.1816c-4.8986 0-5.2407-.12317-6.2635-2.2548-.59505-1.2401-1.2581-2.0788-1.4734-1.8637-.21534.2151-.0156 1.0928.44392 1.9504.79674 1.487.48447 2.567-.74223 2.567-.72619 0-2.1362-3.4814-3.0702-7.5803-.7015-3.0787-.73008-3.1018-.80748-.65039-.0442 1.3977.2818 3.4925.72429 4.655 1.0276 2.6998.19914 4.1277-1.2922 2.227-.81518-1.0389-1.0738-1.1136-.92184-.26617.12715.70893-.54111 1.2918-1.6783 1.4639l-1.8896.286.44498-7.2464zm-593.14 4.9259c-.92973-1.1261-.85133-1.1637.70233-.33688 1.1441.60886 1.9201.65404 2.2439.13064.65451-1.0578 1.4083-1.0091 3.0521.19733 1.1762.86326.93464 1.0162-1.7964 1.137-2.0487.0906-3.5224-.30503-4.2019-1.128zm55.477-1.9484c-.1811-3.1254-.11596-3.2381 1.0372-1.7948 1.1099 1.3892 1.1113 1.2938.0139-.97429-1.0518-2.1739-1.2206-9.8318-1.2461-56.559-.0263-48.134.10253-53.935 1.1779-53.043.69187.57355 1.2074.65497 1.2074.19067 0-.44564-.5392-1.0169-1.1982-1.2696-.86526-.33166-1.1982-1.6858-1.1982-4.8729 0-4.2514.0784-4.4136 2.1339-4.4136 1.1736 0 2.7912.59425 3.5947 1.3206.80347.7263 1.4608.93576 1.4608.46545s-.44934-1.0362-.99853-1.2576c-.5492-.22135.75086-.4308 2.889-.46545 3.8148-.0618 3.8798-.0223 3.4705 2.1161-.39008 2.0383-.34446 2.08.70571.64542.61748-.84354 1.1227-1.8242 1.1227-2.1791 0-.35498 5.9431-.64542 13.207-.64542h13.207l-.22587 8.9767-.22586 8.9767-21.568.021-.43546 29.104 5.0107.0584c2.7559.0321 7.6169.009 10.802-.0521l5.7915-.11048v18.4566h-21.516l-.22602 20.353c-.12429 11.194-.10618 20.709.0403 21.145.15919.47357 4.7373.79215 11.383.79215l11.117.00006v6.3834c0 3.9608-.32106 6.3834-.84597 6.3834-.47812 0-.57375.43371-.21994.99741.34433.54857.73731 1.8053.8733 2.7928l.24727 1.7953h-17.877c-16.792 0-17.964-.0958-19.306-1.577-.78585-.86737-1.7618-1.3715-2.1687-1.1203-.40693.25121-.0893.94946.70588 1.5517 1.3793 1.0446 1.3723 1.0961-.1519 1.1198-1.3167.0205-1.6316-.56161-1.7909-3.31zm6.4892-2.69c.27279-.71009.13888-1.0304-.31395-.75083-.43432.26812-.78968.82537-.78968 1.2383 0 1.1478.57258.89485 1.1036-.4875zm31.249-.35752c-.27154-.43886-.92183-.79243-1.4451-.78571-.57165.007-.47313.32095.24685.78571 1.5346.99065 1.8112.99065 1.1982 0zm-5.6721-4.31c-.23627-.61504-1.2135-1.3188-2.1717-1.564-1.6257-.41593-1.6086-.34239.25496 1.1005 2.4079 1.8643 2.4597 1.8768 1.9167.46346zm-27.879-2.8714c-.27154-.43886-.65223-.79793-.84597-.79793-.19375 0-.35227.35907-.35227.79793s.38069.79792.84597.79792c.46529 0 .62381-.35906.35227-.79792zm9.1743-4.8541c.006.62171.20043.94241.43045.71264.23002-.22975.17999-1.0378-.11116-1.7957-.41959-1.0922-.66948-1.1572-1.2048-.31369-.37149.58538-.67542 1.4234-.67542 1.8622 0 .43886.34845.25933.77436-.39896.6376-.9855.77652-.99725.78659-.0665zm-1.088-4.1226c-.19016-1.1855-2.0357-4.4319-2.0708-3.6426-.0383.86018 1.4951 4.64 1.8823 4.64.19167 0 .2765-.44883.1885-.99741zm-5.6898-38.899c-.27153-.43886-.65222-.79793-.84597-.79793s-.35227.35907-.35227.79793.38069.79793.84598.79793c.46528 0 .6238-.35907.35226-.79793zm1.348-51.612c-.57666-.2305-1.2656-.20216-1.5311.063-.26545.26515.20637.45374 1.0485.41909.93059-.0383 1.1199-.22736.48263-.48207zm-4.1439-1.0979c0-.46476-.35948-.6231-.79883-.35187-.43936.27123-.79883.65149-.79883.84502s.35947.35187.79883.35187c.43935 0 .79883-.38026.79883-.84502zm12.415-9.5811c.85975-1.3895-.11944-1.6838-1.2151-.36516-.63007.75834-.69068 1.2162-.16098 1.2162.46722 0 1.0864-.38295 1.376-.85101zm85.955 100.98c-.0797-22.108-.034-22.808 1.6137-24.701 1.5433-1.7729 1.8452-1.8436 3.3572-.78576 2.0245 1.4164 2.9698 1.484 2.7038.19334-.29317-1.4226-3.6413-3.0292-5.1264-2.46-.8747.33528-1.1625.134-.90506-.63296.20761-.6185.95024-1.1291 1.6503-1.1347 1.8962-.0152 2.603-1.0763 1.1005-1.6523-.72192-.27671-1.3126-.85689-1.3126-1.2893 0-.43239-.71895-1.6991-1.5977-2.815-1.54-1.9555-1.5976-3.237-1.5976-35.481 0-21.24.28082-33.279.7692-32.978.42307.26117 4.3474.5183 8.7206.57139 7.9115.0961 7.9428.10422 6.2205 1.6277l-1.7309 1.5311 1.7974-.38488c2.0035-.42903 2.3054.2312.79883 1.7472-.8004.80541-.73403.90424.33453.49804 1.1552-.43912 1.3362.15735 1.3569 4.4704.0131 2.7374-.32982 5.6372-.76206 6.4439-.43224.80672-.49379 1.4668-.13678 1.4668.50601 0 .80627 67.89.32067 72.505-.076.72202-.80015.95954-2.1435.70304-2.4385-.46562-2.273 1.0322.23945 2.1671 1.5232.68809 1.6985 1.4009 1.6678 6.7824-.0188 3.3074.0272 6.193.10225 6.4124.45735 1.3361.59916 6.8896.19271 7.5465-.26789.43297-.3828 2.2298-.25534 3.9931l.23173 3.2059-3.642-3.1756 3.7716 6.3834-2.1368-1.9344c-2.4264-2.1966-2.7487-1.735-.83035 1.1895.71854 1.0954 1.1071 2.1907.86354 2.434-.24359.24332-.82914-.27849-1.3012-1.1596-.47208-.88108-1.3112-2.0788-1.8648-2.6616-.55358-.5828-1.8755-2.9447-2.9377-5.2488-1.0622-2.304-2.2352-4.1891-2.6069-4.1891-.37166 0 .25316 1.831 1.3885 4.069 2.1529 4.2438 2.2012 6.5416.0542 2.5845-.67583-1.2457-1.2432-1.7578-1.2608-1.1381-.0176.61974.89758 2.7112 2.0337 4.6477l2.0657 3.5209-2.2338-.2591c-1.4528-.16851-2.3845-.83361-2.6648-1.9023-.51852-1.9768-4.0226-6.8484-3.6965-5.1392.12557.65829.50852 1.8454.851 2.6379.43295 1.0019.11476 1.9137-1.0442 2.9922-.91679.85315-1.8176 1.5512-2.0018 1.5512-.18417 0-.3718-10.239-.41694-22.753zm14.28.0121c.95995-1.5164.935-1.53-.50084-.27365-.83111.72722-2.4098 1.4454-3.5082 1.5959-1.952.26747-3.1586 1.2208-3.1831 2.515-.006.35504.34724.42362.7866.15239.43935-.27123.79883-.0856.79883.41256 0 1.1086 4.2113-2.198 5.6067-4.4022zm-9.7839-14.911c-.17391-.52115-.74332-1.0898-1.2654-1.2636-.58375-.19435-.76228.17043-.46373.94754.5572 1.4504 2.2083 1.7522 1.7291.31603zm1.7807-1.4462c-.47027-.87772-1.2049-1.5959-1.6325-1.5959-.43068 0-.33243.71185.22026 1.5959.54876.87772 1.2834 1.5958 1.6325 1.5958.34913 0 .25001-.71813-.22026-1.5958zm-3.3496-3.6118c-.24595-.24567-.69262.19718-.99261.98411-.43351 1.1372-.34175 1.2288.44719.44668.54593-.54127.79137-1.1851.54542-1.4308zm1.242-2.3727c.27727-.72176.004-1.1969-.6883-1.1969-.69234 0-.96557.47513-.68829 1.1969.2529.65829.56263 1.1969.68829 1.1969.12567 0 .4354-.5386.6883-1.1969zm3.8244-72.413c-.60457-.60389-1.1874-.64774-1.7072-.12846-.51986.51928-.20652.83228.91792.91688 1.2858.0967 1.4806-.0979.78932-.78842zm.67974-4.0663c0-.15228-.67124-1.05-1.4917-1.9948-1.0179-1.1723-2.3499-1.6918-4.1938-1.6355l-2.7022.0825 3.0567.80916c1.6812.44503 3.2474 1.3056 3.4805 1.9124.36513.95043 1.8506 1.6137 1.8506.82633zm127.01 120.23c0-.76812.98855-2.244 2.1968-3.2796 1.2082-1.0357 1.7723-1.6717 1.2534-1.4133-1.1782.58661-2.1768-.85789-1.0668-1.5431 1.2138-.74934.97956-2.017-.2833-1.533-.60233.23087-1.31-.13946-1.5726-.82297-.26259-.68352-.15434-1.2428.24056-1.2428.78209 0-.24189-4.3268-1.3874-5.8623-.55895-.7493-.62519-31.934-.21763-102.46l.038-6.5829h13.4822l.44214 3.3912c.9854 7.5579 1.1252 7.9291.9016 2.3938-.20056-4.9647-.0446-5.785 1.1001-5.785.9471 0 1.8238 1.5614 3.0242 5.386 3.3277 10.603 5.957 19.363 6.1061 20.346.0835.54947.36677 1.3581.6296 1.797.26283.43886 3.4516 10.313 7.0862 21.943s6.9306 21.502 7.3245 21.939c.42454.47084.67302-5.7021.61025-15.161-.0582-8.7752-.0739-25.111-.0348-36.302l.0711-20.347 6.9883.12076c3.8436.0664 7.9769.15618 9.1851.19948l2.1968.0787v15.892c0 11.967-.24661 15.991-.99853 16.295-.79426.32013-.79287.41535.006.46545 1.4264.0894 1.3739 90.732-.0529 91.312-.70622.28705-.69429.40338.0462.45009.54919.0346.99853.42206.99853.86092 0 .48295-3.3899.79492-8.5874.79028l-8.5874-.008-23.434-70.602-.0656 28.573c-.0472 20.559-.31201 28.421-.94412 28.031-.63882-.39437-.63882-.095 0 1.0973.48349.90217.87883 4.1771.87883 7.278v5.638h-5.9912c-5.152 0-5.9991-.1956-6.0474-1.3964-.0459-1.1429-.15469-1.1792-.59912-.19948-.81844 1.8041-4.9365 2.0207-4.9365.25965zm48.412-3.2353c-.26544-.26514-.45424.20614-.41956 1.0473.0383.92955.22762 1.1186.48262.48208.23076-.576.20239-1.2642-.063-1.5294zm1.4491-17.457c1.7849-.68416 1.5705-1.9094-.33408-1.9094-.88759 0-1.5977.53195-1.5977 1.1969 0 1.343.14631 1.3969 1.9317.71256zm-2.7306-9.3848c0-.78707-2.4006-.0481-2.7436.84447-.32616.849-.0753.90029 1.1639.2379.86882-.46446 1.5797-.95152 1.5797-1.0824zm4.1439-.25102c-.57665-.2305-1.2656-.20216-1.5311.063-.26545.26514.20637.45373 1.0485.41908.93059-.0383 1.1199-.22736.48263-.48207zm-35.573-4.4572c-.21882-.54022-.38453.095-.36825 1.4116.0163 1.3166.19532 1.7586.39785.98222.20254-.77636.18922-1.8536-.0296-2.3938zm.69776-56.861c-.31369-3.3438-.75009-5.9002-.96977-5.6807-.21968.21943-.14275 3.1348.17094 6.4786.3137 3.3438.75009 5.9002.96977 5.6807.21968-.21943.14276-3.1348-.17094-6.4786zm-.73911-9.7345c-.81203-.8111-1.482.41005-.81578 1.4868.50329.81343.69145.81406.96203.003.18501-.5544.11919-1.2249-.14625-1.4901zm-1.2948-10.386c-.76572-1.1971-.83118-1.1109-.45195.595.2439 1.0972.51487 3.6106.60215 5.5855l.15867 3.5907.29327-4.1857c.1613-2.3021-.10966-4.8156-.60214-5.5855zm-308.66 108c.52009-1.3538 3.0275-1.1396 4.6767.39957 1.0185.95051-.40226.90911-1.9303-.0563-.7453-.47084-1.5511-.42534-2.2151.12509-.80605.6682-.92699.56157-.53132-.4684zm-2.0734-2.0839c-.71998-.46477-.8185-.77838-.24685-.78572.52326-.006 1.1736.34685 1.4451.78572.61294.99065.3364.99065-1.1982 0zm-.79883-24.736c0-.43886.15852-.79792.35227-.79792s.57444.35906.84598.79792.11302.79793-.35227.79793-.84598-.35907-.84598-.79793zm436.96-6.34c0-.46476.35947-.84502.79883-.84502.43935 0 .79883.15834.79883.35187s-.35948.57379-.79883.84502c-.43936.27123-.79883.11289-.79883-.35187zm-.12993-67.846c.15518-2.7442.6211-4.691 1.0984-4.5895 1.6046.34117 1.4729-1.6207-.13697-2.0412-.89668-.23422-1.6303-.86041-1.6303-1.3916 0-.53113.62908-.80107 1.398-.59985 1.1614.30394 1.3831-.15001 1.3099-2.683-.0484-1.6768-.46359-3.5052-.92263-4.0629-1.0936-1.3287-1.5324-3.355-.78129-3.6074 3.1446-1.0566 6.6202 1.4042 5.803 4.1086-.57771 1.9118-3.4874 14.134-4.1508 17.435-.24252 1.2069-.84948 2.195-1.3488 2.1958-.60679.00079-.81849-1.579-.63838-4.7643z" fill="#040404"/>
 </g>
</svg>
