<?xml version="1.0" standalone="no"?>
<!DOCTYPE svg PUBLIC "-//W3C//DTD SVG 20010904//EN"
 "http://www.w3.org/TR/2001/REC-SVG-20010904/DTD/svg10.dtd">
<svg version="1.0" xmlns="http://www.w3.org/2000/svg"
 width="1024.000000pt" height="1026.000000pt" viewBox="0 0 1024.000000 1026.000000"
 preserveAspectRatio="xMidYMid meet">

<g transform="translate(0.000000,1026.000000) scale(0.100000,-0.100000)"
fill="#000000" stroke="none">
<path d="M7170 10209 c-28 -9 -460 -52 -745 -74 -863 -66 -1654 -67 -2535 -4
-246 17 -676 57 -820 75 -30 4 -50 1 -61 -8 -9 -7 -95 -110 -192 -228 -794
-973 -1541 -1721 -2518 -2521 -286 -234 -263 -208 -255 -282 40 -375 74 -778
98 -1167 20 -322 17 -1483 -5 -1820 -22 -342 -42 -576 -73 -883 -14 -136 -23
-256 -19 -266 3 -10 94 -91 203 -179 368 -298 808 -684 1092 -958 63 -61 132
-126 154 -145 50 -44 468 -478 616 -639 234 -255 663 -757 844 -987 27 -34 57
-65 66 -68 10 -3 103 3 207 14 1031 111 2054 133 3038 65 254 -17 599 -47 798
-70 76 -8 146 -13 156 -9 10 3 40 34 67 68 110 139 501 604 659 781 628 706
1274 1320 2047 1948 109 88 200 169 203 179 4 10 -5 130 -19 266 -66 642 -86
1004 -93 1643 -8 776 11 1195 93 2023 22 218 24 261 12 277 -7 10 -103 91
-213 181 -980 797 -1753 1569 -2570 2569 -92 113 -177 210 -189 216 -13 7 -31
8 -46 3z m-4063 -386 c45 -109 489 -1181 987 -2382 498 -1202 904 -2186 902
-2188 -1 -2 -306 122 -677 276 -884 366 -3582 1483 -3866 1601 -123 51 -223
95 -222 99 0 3 60 54 132 113 916 740 1807 1629 2525 2520 70 86 129 157 132
157 3 1 43 -88 87 -196z m4245 39 c354 -439 726 -850 1178 -1303 468 -469 897
-856 1348 -1219 72 -58 131 -108 131 -111 1 -4 -99 -48 -221 -99 -235 -97
-1793 -743 -3517 -1456 -563 -233 -1026 -423 -1028 -421 -1 2 262 642 585
1423 324 780 768 1852 987 2382 220 529 402 962 405 961 3 0 62 -71 132 -157z
m-2352 -4856 c0 -2 -19 -48 -41 -102 -23 -55 -466 -1125 -986 -2379 -520
-1254 -946 -2282 -949 -2284 -2 -2 -14 9 -26 25 -62 78 -397 477 -517 614
-643 734 -1339 1405 -2087 2012 -90 73 -163 136 -164 139 0 3 602 255 1337
560 736 304 1806 748 2378 985 572 238 1043 432 1048 433 4 1 7 -1 7 -3z
m1175 -381 c1177 -488 2518 -1043 3253 -1347 320 -132 582 -244 582 -247 -1
-3 -62 -55 -137 -116 -453 -366 -884 -755 -1333 -1205 -451 -450 -784 -817
-1160 -1279 -85 -104 -158 -190 -161 -190 -3 -1 -104 236 -224 527 -120 290
-399 964 -620 1497 -221 534 -565 1363 -764 1844 -200 480 -365 881 -369 889
-4 11 -1 14 9 10 8 -3 424 -176 924 -383z"/>
</g>
</svg>
