<?xml version="1.0" encoding="iso-8859-1"?>
<!-- Generator: Adobe Illustrator 19.0.0, SVG Export Plug-In . SVG Version: 6.00 Build 0)  -->
<svg version="1.1" id="Capa_1" xmlns="http://www.w3.org/2000/svg" xmlns:xlink="http://www.w3.org/1999/xlink" x="0px" y="0px"
	 viewBox="0 0 434.8 434.8" style="enable-background:new 0 0 434.8 434.8;" xml:space="preserve">
<g>
	<g>
		<path d="M217.85,0c0,0.1-0.1,0.1-0.3,0.1c-79.5,0-144.1,64.7-144.1,144.3v59h0.3l19.7-33.6v-25.5c0-68.5,55.6-124.3,124.1-124.3
			c68.4,0,123.9,55.5,123.9,123.9c0,0.1,0,0.2,0,0.4v25.5l19.6,33.6h0.3v-59.1C361.55,64.8,297.35,0.2,217.85,0z"/>
	</g>
</g>
<g>
	<g>
		<path d="M312.45,231.1c-24.8,6.5-58.4,10.1-94.8,10.1c-0.1,0-0.2,0-0.2,0v85.3c0,5.5-4.5,10-10,10s-10-4.5-10-10v-85.7
			c-8-0.3-15-0.7-22-1.3v45.4c0,5.5-4.5,10-10,10s-10-4.5-10-10v-46.8c0-0.2-0.2-0.5-0.2-0.7c-7.6-1-14.8-2.2-21.8-3.6v103.1
			c0,5.5-4.5,10-10,10c-5.5,0-10-4.5-10-10V228.6c-7-2.5-14.4-5.3-19.9-8.4l0.4,186.5c0.3,3.7,7.4,11.5,32.4,18.3
			c23.3,6.3,55.7,9.8,91.1,9.8c35.4,0,67.8-3.5,91.1-9.8c25-6.8,32.1-14.6,32.4-18.3l0.2-186.6
			C333.65,224.4,324.15,228,312.45,231.1z"/>
	</g>
</g>
<g>
	<g>
		<path d="M217.45,164.4c-86.2,0-123.5,18.8-123.5,28.4c0,0.2,0,0.3,0,0.4c0,0,0,0.1,0,0.2c1.4,9.7,39,27.7,123.5,27.7
			s122.1-18.1,123.5-27.8c0,0,0-0.1,0-0.2c0-0.1,0-0.2,0-0.3C340.95,183.3,303.65,164.4,217.45,164.4z"/>
	</g>
</g>
<g>
</g>
<g>
</g>
<g>
</g>
<g>
</g>
<g>
</g>
<g>
</g>
<g>
</g>
<g>
</g>
<g>
</g>
<g>
</g>
<g>
</g>
<g>
</g>
<g>
</g>
<g>
</g>
<g>
</g>
</svg>
