<?xml version="1.0" standalone="no"?>
<!DOCTYPE svg PUBLIC "-//W3C//DTD SVG 20010904//EN"
 "http://www.w3.org/TR/2001/REC-SVG-20010904/DTD/svg10.dtd">
<svg version="1.0" xmlns="http://www.w3.org/2000/svg"
 width="596.000000pt" height="652.000000pt" viewBox="0 0 596.000000 652.000000"
 preserveAspectRatio="xMidYMid meet">

<g transform="translate(0.000000,652.000000) scale(0.100000,-0.100000)"
fill="#000000" stroke="none">
<path d="M2740 6490 c-260 -36 -476 -113 -662 -237 -104 -68 -281 -248 -357
-362 -195 -294 -290 -614 -321 -1084 -5 -87 -19 -213 -30 -280 l-20 -122 -43
-35 c-359 -296 -670 -773 -924 -1420 -132 -333 -264 -760 -325 -1043 -33 -152
-33 -153 -32 -432 0 -380 13 -424 172 -595 83 -89 131 -114 208 -108 45 3 50
1 81 -33 18 -20 57 -47 85 -59 76 -32 194 -26 275 16 83 42 105 81 167 284
l52 173 94 1 c86 1 100 4 143 29 52 31 100 95 117 157 15 55 12 124 -11 213
-11 45 -38 165 -59 267 l-38 185 31 75 31 75 8 -45 c4 -25 16 -111 28 -192 37
-264 83 -399 191 -562 79 -120 223 -277 315 -342 68 -49 205 -116 272 -133 38
-11 42 -14 42 -44 0 -60 -31 -161 -88 -292 -53 -120 -57 -136 -57 -205 0 -65
5 -85 33 -142 40 -81 94 -132 164 -153 72 -23 359 -32 495 -16 123 14 289 53
342 80 54 28 116 102 131 157 l13 45 46 -45 c71 -69 96 -76 329 -89 241 -12
377 -2 498 38 145 48 214 123 214 232 0 104 -112 257 -240 330 -70 40 -105 78
-119 128 -18 66 -17 68 85 114 190 87 359 220 472 370 138 183 239 451 259
686 3 41 10 75 14 75 5 0 9 -4 9 -9 0 -15 349 -534 383 -569 41 -43 78 -62
135 -71 l45 -6 44 -100 c79 -183 128 -228 244 -223 179 9 248 118 249 389 0
184 -48 409 -165 769 -132 403 -407 1104 -622 1584 -95 213 -185 331 -400 529
-47 44 -56 58 -82 140 -39 123 -66 252 -90 432 -42 313 -89 477 -197 685 -215
417 -549 669 -1021 771 -79 17 -141 21 -323 24 -124 2 -254 0 -290 -5z m728
-706 c222 -45 429 -179 558 -360 88 -124 160 -311 184 -480 16 -113 13 -353
-4 -454 -51 -285 -183 -474 -411 -585 -228 -112 -477 -119 -788 -24 -352 108
-615 366 -709 694 -20 69 -23 103 -23 245 0 142 3 176 23 244 89 308 277 524
565 648 77 34 194 69 267 81 66 11 267 6 338 -9z m-238 -4974 c0 -21 -5 -62
-11 -91 -6 -29 -14 -84 -18 -122 l-6 -71 -72 110 c-64 97 -103 171 -103 194 0
13 29 18 123 19 l87 1 0 -40z"/>
<path d="M3016 4870 c-41 -13 -94 -68 -106 -110 -13 -46 -13 -285 0 -332 13
-46 77 -105 125 -114 43 -8 101 7 137 36 50 38 58 74 58 244 0 136 -3 162 -20
195 -34 67 -122 104 -194 81z"/>
<path d="M3851 4852 c-63 -34 -71 -64 -71 -260 0 -193 6 -218 63 -252 64 -40
158 -15 192 49 12 24 15 66 15 203 0 149 -3 178 -18 207 -21 40 -73 71 -117
71 -17 0 -46 -8 -64 -18z"/>
</g>
</svg>
